<svg width="30" height="30" viewBox="0 0 30 30" fill="none" xmlns="http://www.w3.org/2000/svg">
<circle cx="15" cy="15" r="14.5" stroke="#888888"/>
<path d="M14.5992 7.00233C13.3152 7.01783 10.5547 7.22883 9.01065 8.64533C7.86215 9.78333 7.46115 11.4658 7.41415 13.5463C7.37515 15.6193 7.32815 19.5123 11.0807 20.5723V22.1868C11.0807 22.1868 11.0572 22.8328 11.4842 22.9653C12.0102 23.1318 12.3097 22.6348 12.8097 22.1008L13.7422 21.0463C16.3097 21.2598 18.2762 20.7678 18.5027 20.6948C19.0237 20.5283 21.9582 20.1533 22.4377 16.2598C22.9297 12.2388 22.1982 9.70533 20.8777 8.55933H20.8697C20.4712 8.19233 18.8697 7.02533 15.2917 7.01233C15.2917 7.01233 15.0262 6.99433 14.5992 7.00183V7.00233ZM14.6432 8.13283C15.0077 8.13033 15.2292 8.14583 15.2292 8.14583C18.2577 8.15383 19.7032 9.06533 20.0442 9.37233C21.1562 10.3253 21.7292 12.6093 21.3097 15.9663C20.9111 19.2213 18.5312 19.4273 18.0907 19.5678C17.9032 19.6278 16.1712 20.0548 13.9892 19.9143C13.9892 19.9143 12.3642 21.8753 11.8562 22.3803C11.7757 22.4688 11.6817 22.4948 11.6217 22.4818C11.5357 22.4608 11.5097 22.3543 11.5147 22.2083L11.5302 19.5288C8.34765 18.6488 8.53515 15.3283 8.56915 13.5938C8.60815 11.8593 8.93365 10.4403 9.90265 9.47933C11.2072 8.29983 13.5512 8.14083 14.6422 8.13283H14.6432ZM14.8832 9.86683C14.857 9.86656 14.831 9.87149 14.8067 9.88131C14.7824 9.89114 14.7603 9.90567 14.7417 9.92408C14.723 9.94249 14.7082 9.9644 14.6981 9.98855C14.688 10.0127 14.6827 10.0386 14.6827 10.0648C14.6827 10.1768 14.7737 10.2653 14.8832 10.2653C15.3789 10.2559 15.8716 10.3447 16.3329 10.5266C16.7941 10.7086 17.2148 10.98 17.5707 11.3253C18.2972 12.0308 18.6512 12.9788 18.6647 14.2183C18.6647 14.3278 18.7531 14.4188 18.8652 14.4188V14.4108C18.9179 14.411 18.9686 14.3902 19.0062 14.3531C19.0438 14.316 19.0651 14.2656 19.0657 14.2128C19.0899 13.6294 18.9953 13.0471 18.7876 12.5014C18.5798 11.9557 18.2633 11.4579 17.8572 11.0383C17.0657 10.2648 16.0627 9.86633 14.8832 9.86633V9.86683ZM12.2477 10.3253C12.1061 10.3046 11.9618 10.3331 11.8387 10.4058H11.8282C11.5423 10.5734 11.2848 10.7852 11.0652 11.0333C10.8827 11.2443 10.7837 11.4578 10.7577 11.6633C10.7422 11.7858 10.7527 11.9083 10.7892 12.0253L10.8022 12.0333C11.0077 12.6373 11.2762 13.2183 11.6042 13.7653C12.0267 14.5338 12.5466 15.2445 13.1512 15.8798L13.1692 15.9058L13.1977 15.9268L13.2157 15.9478L13.2367 15.9658C13.8743 16.5721 14.5867 17.0945 15.3567 17.5203C16.2367 17.9993 16.7706 18.2258 17.0912 18.3198V18.3248C17.1852 18.3533 17.2706 18.3663 17.3567 18.3663C17.6298 18.3463 17.8884 18.2354 18.0912 18.0513C18.3382 17.8317 18.5476 17.5731 18.7112 17.2858V17.2808C18.8647 16.9918 18.8127 16.7183 18.5912 16.5333C18.1476 16.1456 17.6679 15.8012 17.1587 15.5048C16.8177 15.3198 16.4712 15.4318 16.3307 15.6193L16.0312 15.9968C15.8777 16.1843 15.5987 16.1583 15.5987 16.1583L15.5907 16.1633C13.5102 15.6318 12.9552 13.5253 12.9552 13.5253C12.9552 13.5253 12.9292 13.2388 13.1217 13.0928L13.4967 12.7908C13.6762 12.6448 13.8012 12.2988 13.6087 11.9573C13.3144 11.4474 12.9707 10.9676 12.5827 10.5248C12.4978 10.4204 12.3788 10.3494 12.2467 10.3243L12.2477 10.3253ZM15.2292 10.9193C14.9637 10.9193 14.9637 11.3203 15.2317 11.3203C15.5618 11.3257 15.8876 11.396 16.1906 11.5274C16.4935 11.6587 16.7676 11.8485 16.9972 12.0858C17.2066 12.3168 17.3675 12.5875 17.4704 12.8818C17.5733 13.1762 17.616 13.4882 17.5962 13.7993C17.5971 13.852 17.6186 13.9022 17.656 13.9392C17.6935 13.9762 17.744 13.9971 17.7967 13.9973L17.8047 14.0078C17.8577 14.0074 17.9085 13.9862 17.946 13.9487C17.9835 13.9112 18.0048 13.8604 18.0052 13.8073C18.0232 13.0128 17.7762 12.3463 17.2917 11.8123C16.8047 11.2783 16.1252 10.9788 15.2577 10.9193H15.2292ZM15.5577 11.9973C15.2842 11.9893 15.2737 12.3983 15.5447 12.4063C16.2037 12.4403 16.5237 12.7733 16.5657 13.4583C16.5666 13.5103 16.5878 13.5599 16.6248 13.5964C16.6618 13.633 16.7116 13.6536 16.7637 13.6538H16.7717C16.7984 13.6527 16.8246 13.6462 16.8488 13.6348C16.8731 13.6234 16.8948 13.6073 16.9127 13.5874C16.9306 13.5676 16.9444 13.5443 16.9532 13.5191C16.9621 13.4938 16.9658 13.467 16.9642 13.4403C16.9172 12.5473 16.4302 12.0443 15.5657 11.9978H15.5577V11.9973Z" fill="#888888"/>
</svg>
