<svg width="16" height="16" viewBox="0 0 16 16" fill="none" xmlns="http://www.w3.org/2000/svg">
<path d="M15.7656 7.76562H14.6907C14.6441 6.39462 14.1882 5.09516 13.3648 3.99412C13.2873 3.89047 13.1404 3.86925 13.0367 3.94678C12.9331 4.02431 12.9119 4.17119 12.9894 4.27484C13.7517 5.29422 14.1753 6.49662 14.2218 7.76562H13.4086C13.2887 4.96644 11.0336 2.71125 8.23438 2.59141V1.77856C9.80953 1.83647 11.2821 2.47684 12.4026 3.59741C12.4941 3.68894 12.6425 3.68894 12.7341 3.59741C12.8256 3.50587 12.8256 3.35747 12.7341 3.26597C11.5249 2.05684 9.93475 1.36766 8.23438 1.30953V0.234375C8.23438 0.104937 8.12947 0 8 0C7.87053 0 7.76562 0.104937 7.76562 0.234375V1.3095C6.04503 1.36816 4.44103 2.07116 3.22722 3.305C3.13647 3.39728 3.13766 3.54566 3.22994 3.63644C3.27559 3.68134 3.33494 3.70372 3.39431 3.70372C3.45491 3.70372 3.51553 3.68034 3.56141 3.63372C4.68637 2.49019 6.17175 1.83697 7.76566 1.77853V2.59138C4.96644 2.71125 2.71125 4.96644 2.59138 7.76562H1.77819C1.82403 6.51638 2.23619 5.3295 2.97731 4.31975C3.05391 4.21541 3.03141 4.06872 2.92706 3.99213C2.82275 3.91553 2.67609 3.93803 2.59947 4.04238C1.79884 5.13313 1.35531 6.41591 1.30925 7.76562H0.234375C0.104906 7.76562 0 7.87056 0 8C0 8.12944 0.104906 8.23438 0.234375 8.23438H1.3095C1.36762 9.93475 2.05684 11.525 3.26594 12.7341C4.47506 13.9432 6.06525 14.6324 7.76562 14.6905V15.7656C7.76562 15.8951 7.87053 16 8 16C8.12947 16 8.23438 15.8951 8.23438 15.7656V14.6905C9.93478 14.6324 11.525 13.9432 12.7341 12.7341C13.9432 11.525 14.6323 9.93475 14.6905 8.23438H15.7656C15.8951 8.23438 16 8.12944 16 8C16 7.87056 15.8951 7.76562 15.7656 7.76562ZM8 3.05475C10.7268 3.05475 12.9452 5.27319 12.9452 8C12.9452 10.7268 10.7268 12.9452 8 12.9452C5.27319 12.9452 3.05475 10.7268 3.05475 8C3.05475 5.27319 5.27319 3.05475 8 3.05475ZM1.77863 8.23438H2.59138C2.71125 11.0336 4.96641 13.2888 7.76562 13.4086V14.2214C4.5185 14.1005 1.89947 11.4815 1.77863 8.23438ZM8.23438 14.2214V13.4086C11.0336 13.2887 13.2887 11.0336 13.4086 8.23438H14.2214C14.1005 11.4815 11.4815 14.1005 8.23438 14.2214Z" fill="#EA8917"/>
<path d="M7.7656 10.2191V11.6308C7.7656 11.7603 7.87051 11.8652 7.99998 11.8652C8.12945 11.8652 8.23435 11.7603 8.23435 11.6308V10.2191C9.27798 10.1096 10.1096 9.27798 10.2191 8.23435H11.6308C11.7603 8.23435 11.8652 8.12942 11.8652 7.99998C11.8652 7.87054 11.7603 7.7656 11.6308 7.7656H10.2191C10.1096 6.72198 9.27798 5.89033 8.23435 5.78089V4.36914C8.23435 4.2397 8.12945 4.13477 7.99998 4.13477C7.87051 4.13477 7.7656 4.2397 7.7656 4.36914V5.78089C6.72198 5.89033 5.89033 6.72198 5.78089 7.7656H4.36914C4.23967 7.7656 4.13477 7.87054 4.13477 7.99998C4.13477 8.12942 4.23967 8.23435 4.36914 8.23435H5.78089C5.89033 9.27798 6.72198 10.1096 7.7656 10.2191ZM7.7656 6.25329V7.17957C7.7656 7.30901 7.87051 7.41395 7.99998 7.41395C8.12945 7.41395 8.23435 7.30901 8.23435 7.17957V6.25329C9.01913 6.35807 9.64185 6.98082 9.74666 7.7656H8.82035C8.69088 7.7656 8.58598 7.87054 8.58598 7.99998C8.58598 8.12942 8.69088 8.23435 8.82035 8.23435H9.74666C9.64188 9.0191 9.01913 9.64185 8.23435 9.74666V8.82038C8.23435 8.69095 8.12945 8.58601 7.99998 8.58601C7.87051 8.58601 7.7656 8.69095 7.7656 8.82038V9.74666C6.98082 9.64188 6.35811 9.01913 6.25329 8.23435H7.1796C7.30907 8.23435 7.41398 8.12942 7.41398 7.99998C7.41398 7.87054 7.30907 7.7656 7.1796 7.7656H6.25329C6.35811 6.98085 6.98082 6.35811 7.7656 6.25329Z" fill="#EA8917"/>
</svg>
