<svg width="14" height="14" viewBox="0 0 14 14" fill="none" xmlns="http://www.w3.org/2000/svg">
<g clip-path="url(#clip0)">
<path d="M10.6 12.688C10.5243 12.5574 10.357 12.513 10.2263 12.5887L10.2158 12.5948C10.0852 12.6705 10.0408 12.8379 10.1165 12.9685C10.1673 13.0559 10.259 13.1047 10.3533 13.1047C10.3998 13.1047 10.4471 13.0928 10.4902 13.0677L10.5008 13.0617C10.6314 12.9859 10.6758 12.8186 10.6 12.688Z" fill="#333333"/>
<path d="M13.0624 3.50314C12.1278 1.88425 10.6186 0.726271 8.81301 0.242451C7.00745 -0.241369 5.1215 0.00693923 3.50261 0.941576C1.88375 1.87621 0.725744 3.38537 0.241951 5.19096C-0.241842 6.99655 0.00643875 8.88253 0.941075 10.5014C1.77946 11.9535 3.11198 13.0572 4.69316 13.6089C5.44268 13.8704 6.22512 14.0009 7.00636 14.0009C7.85579 14.0009 8.70369 13.8465 9.50517 13.5385C9.64612 13.4843 9.71645 13.3262 9.66226 13.1852C9.60806 13.0442 9.44985 12.9738 9.30895 13.0281C7.17559 13.8481 4.86608 13.4755 3.14061 12.1803L3.38558 10.9016L3.50362 10.8633C3.94968 10.7184 4.19468 10.2375 4.04981 9.79146L3.96319 9.52489C3.94315 9.4632 3.94326 9.39799 3.96346 9.33635C4.03945 9.1047 4.0123 8.85125 3.88895 8.64092C3.7656 8.43062 3.55765 8.28315 3.31837 8.23637L2.70122 8.11578L1.51045 7.21043C1.43911 7.15618 1.34574 7.14035 1.26048 7.16802L0.563322 7.39448C0.548529 7.14513 0.54831 6.89587 0.562365 6.64792C0.589872 6.67354 0.607783 6.69095 0.618802 6.70238C0.632447 6.72511 0.649345 6.74594 0.669142 6.76399C0.726072 6.81583 0.777642 6.83935 0.885923 6.83935C0.985427 6.83932 1.13273 6.8195 1.37595 6.78357C1.60662 6.74947 1.83609 6.71105 1.83836 6.71067C1.93032 6.69528 2.00806 6.63403 2.04464 6.5483C2.08123 6.46255 2.07158 6.36409 2.01905 6.28703L1.68379 5.79528L2.164 5.4519C2.19599 5.42901 2.22268 5.39951 2.24223 5.36538L2.98661 4.06587L3.28665 3.74436C3.59326 3.41575 3.68076 2.93496 3.50953 2.51945C3.40852 2.27436 3.2321 2.07033 3.01143 1.93281C3.25042 1.74494 3.50524 1.57147 3.77605 1.41514C4.76967 0.84147 5.85401 0.563467 6.92695 0.55283L6.4387 1.1653L4.62813 1.80003C4.55461 1.82579 4.49554 1.88174 4.46585 1.95376L3.96021 3.17953C3.92431 3.26662 3.93571 3.36598 3.99042 3.44265L4.72892 4.47712C4.62316 4.57362 4.52021 4.71417 4.39724 4.88867C4.34332 4.96521 4.29241 5.03748 4.25722 5.078C4.22662 5.11328 4.19599 5.14773 4.16564 5.18185C4.0068 5.36055 3.84258 5.54536 3.7259 5.79222C3.46936 6.33524 3.52118 6.96639 3.86111 7.43938C4.18981 7.8967 4.73171 8.12918 5.31009 8.06115C5.40431 8.0501 5.49217 8.02836 5.57718 8.00731C5.8116 7.94931 5.88586 7.94352 5.96106 8.0139C5.99765 8.04816 6.00101 8.05464 6.00027 8.17083C5.99975 8.24476 5.99918 8.33675 6.02466 8.44177C6.06549 8.6098 6.17101 8.72593 6.25577 8.81923C6.29791 8.86558 6.34149 8.91354 6.35492 8.94572C6.4402 9.15009 6.40307 9.26326 6.3217 9.51127C6.31472 9.53249 6.30761 9.55415 6.30048 9.57635C6.17686 9.95903 6.34918 10.3386 6.50121 10.6735C6.55059 10.7822 6.59721 10.8849 6.62776 10.9756C6.8736 11.7051 7.0579 11.8722 7.2058 11.9394C7.28327 11.9746 7.36344 11.9901 7.44443 11.9901C7.83859 11.99 8.2499 11.6241 8.43884 11.3921C8.55751 11.2464 8.58674 11.1005 8.60807 10.9939C8.61871 10.9409 8.62708 10.8991 8.64305 10.8718C8.66749 10.8299 8.69628 10.7975 8.73273 10.7564C8.80604 10.6739 8.89729 10.5712 8.95638 10.385C9.00128 10.2436 9.0339 10.2089 9.14193 10.0938C9.16074 10.0738 9.18079 10.0525 9.20231 10.0291C9.5665 9.63276 9.47271 9.33004 9.37337 9.00951C9.28978 8.73982 9.43599 8.56734 9.78949 8.23815C9.94272 8.09544 10.1012 7.94789 10.2236 7.7706C10.2772 7.69299 10.4403 7.45693 10.3394 7.22295C10.2405 6.99354 9.98909 6.95499 9.78713 6.92403C9.70737 6.91178 9.58684 6.8933 9.54848 6.86822C9.3793 6.75762 9.27581 6.52678 9.1757 6.30352C9.15577 6.25909 9.13611 6.21523 9.11617 6.17265C9.08063 6.09669 9.04511 6.00479 9.00751 5.9075C8.90803 5.65003 8.79529 5.35819 8.60337 5.15476C8.43086 4.97196 8.10566 4.88392 7.81874 4.8062C7.72224 4.78009 7.63116 4.75543 7.57109 4.73325C7.52075 4.71466 7.46611 4.7113 7.414 4.72355C7.27435 4.75628 7.18724 4.79234 7.12254 4.84419C7.10545 4.85788 7.05484 4.90287 7.0252 4.97516C6.92509 4.92712 6.78744 4.83538 6.70273 4.77892C6.70098 4.77774 6.6992 4.77656 6.69745 4.77539C6.726 4.66115 6.70016 4.56946 6.67309 4.51221C6.52035 4.18911 6.01331 4.2144 5.91329 4.22291C5.85647 4.22767 5.78458 4.23021 5.70854 4.23289C5.5891 4.23713 5.45709 4.24188 5.32647 4.25654L5.33319 4.23778C5.43234 3.96153 5.69615 3.77592 5.98966 3.77592H6.14511C6.29608 3.77592 6.41852 3.65347 6.41852 3.50251C6.41852 3.35155 6.29608 3.2291 6.14511 3.2291H5.98966C5.55391 3.2291 5.15488 3.45843 4.93124 3.8194L4.52341 3.2481L4.92465 2.27551L6.69387 1.65525C6.74238 1.63824 6.78515 1.60789 6.81722 1.56767L7.60371 0.581131C9.61331 0.772291 11.505 1.89902 12.5889 3.77649C12.8776 4.27658 13.0912 4.80306 13.2332 5.34154L13.1173 5.4449C12.966 5.5799 12.8774 5.77352 12.874 5.97616C12.8739 5.97838 12.8739 5.98056 12.8738 5.98275L12.685 5.46344C12.6568 5.38595 12.6154 5.31488 12.5618 5.25224L12.225 4.85786C12.0944 4.70498 11.9043 4.61734 11.7032 4.61734H11.2909C11.1446 4.61734 11.0108 4.69751 10.9418 4.82649C10.8727 4.9555 10.8803 5.11131 10.9614 5.23304L11.0032 5.29569C10.7367 5.5248 10.4286 5.70814 10.1004 5.83179L9.53524 4.74917V4.50764C9.53524 4.43294 9.50467 4.36143 9.45061 4.30989L8.94167 3.82402C8.91358 3.79722 8.88012 3.77671 8.8435 3.76383L8.38536 3.60283C8.24281 3.55269 8.08679 3.62769 8.03675 3.77012C7.98669 3.91261 8.06158 4.06866 8.20404 4.11873L8.60665 4.26023L8.98842 4.62464V4.81627C8.98842 4.86032 8.99909 4.90374 9.01949 4.94281L9.72706 6.29816C9.79069 6.42012 9.93512 6.47584 10.064 6.42815L10.2701 6.35219C10.7487 6.17566 11.1924 5.8917 11.5531 5.53103C11.6452 5.43886 11.6596 5.29451 11.5872 5.18604L11.5727 5.16419H11.7032C11.7441 5.16419 11.7827 5.18199 11.8092 5.21305L12.1461 5.60743C12.1569 5.62015 12.1653 5.63453 12.1711 5.65031L12.5428 6.6725C12.5747 6.76033 12.6493 6.82573 12.7405 6.84597C12.7602 6.85031 12.78 6.85245 12.7997 6.85245C12.8715 6.85245 12.9413 6.8242 12.9931 6.77236L13.17 6.59542C13.282 6.48333 13.3592 6.34153 13.396 6.18433C13.6697 8.37744 12.8098 10.6461 10.9921 12.0727C10.8733 12.1659 10.8526 12.3378 10.9459 12.4566C11.0391 12.5754 11.2109 12.5961 11.3297 12.5029C12.642 11.4729 13.5435 9.99977 13.8682 8.35479C14.196 6.69396 13.9098 4.9709 13.0624 3.50314ZM1.29335 7.73231L2.42081 8.58957C2.45414 8.61491 2.49281 8.63225 2.53388 8.64026L3.21342 8.77304C3.30016 8.79 3.37251 8.84129 3.41722 8.91753C3.46192 8.99374 3.47133 9.08192 3.44382 9.16589C3.38722 9.33851 3.38695 9.52109 3.44308 9.69382L3.52971 9.96037C3.58147 10.1197 3.49392 10.2914 3.33464 10.3432L3.06292 10.4315C2.96812 10.4623 2.89763 10.5422 2.8789 10.64L2.6602 11.7816C2.17942 11.3416 1.75729 10.8215 1.41464 10.228C0.996611 9.50403 0.735423 8.73181 0.620306 7.95098L1.29335 7.73231ZM2.88686 3.37129L2.56521 3.7159C2.55086 3.73129 2.53831 3.7483 2.52783 3.76657L1.79743 5.04177L1.14826 5.50596C1.02735 5.59242 0.99765 5.75957 1.08138 5.8824L1.32416 6.23853C1.18422 6.25936 1.05863 6.27653 0.975119 6.28564C0.959068 6.27024 0.942279 6.25463 0.924915 6.2385C0.859919 6.17812 0.769603 6.09749 0.634962 5.97966C0.857021 4.60528 1.51929 3.3105 2.56086 2.32216C2.76031 2.38497 2.92399 2.53375 3.00394 2.72781C3.0939 2.94606 3.04791 3.19867 2.88686 3.37129ZM5.11619 4.86543C5.23815 4.7968 5.52121 4.78676 5.72787 4.77944C5.8107 4.77651 5.88895 4.77372 5.95885 4.76787C5.99573 4.76478 6.03669 4.76535 6.07533 4.76836C6.05808 4.81266 6.05247 4.86128 6.05996 4.90951C6.07311 4.99436 6.12542 5.06805 6.20111 5.10855C6.25241 5.136 6.3238 5.1836 6.39938 5.234C6.61307 5.37646 6.85531 5.53792 7.08286 5.55242C7.2898 5.56584 7.40495 5.44791 7.45428 5.39768C7.45821 5.39369 7.46193 5.38969 7.46587 5.38606C7.49365 5.36342 7.51968 5.33306 7.53904 5.29645C7.58276 5.30895 7.6287 5.32139 7.67579 5.33416C7.83769 5.37799 8.13904 5.45958 8.20563 5.53013C8.32389 5.6555 8.41606 5.89413 8.49741 6.10465C8.53851 6.21104 8.57734 6.31145 8.6209 6.40456C8.6396 6.44451 8.658 6.48566 8.6767 6.52733C8.80287 6.80875 8.94588 7.12774 9.24926 7.32604C9.38682 7.41597 9.55545 7.44181 9.70426 7.46465C9.72225 7.46741 9.74286 7.47058 9.76381 7.47402C9.67549 7.59724 9.54974 7.71432 9.41687 7.83805C9.07838 8.15327 8.65713 8.5456 8.85113 9.17147C8.94271 9.467 8.94697 9.49894 8.79972 9.65912C8.77965 9.68097 8.76095 9.70087 8.74342 9.71952C8.61731 9.85378 8.5177 9.95982 8.43523 10.2196C8.41128 10.295 8.38024 10.33 8.32389 10.3934C8.27883 10.4442 8.22269 10.5074 8.17093 10.596C8.10891 10.7021 8.0884 10.8043 8.07197 10.8864C8.05576 10.9672 8.04657 11.0078 8.01485 11.0467C7.94263 11.1354 7.80794 11.2641 7.66966 11.352C7.54115 11.4336 7.46611 11.4447 7.44055 11.4432C7.41137 11.4119 7.30569 11.2749 7.146 10.801C7.10663 10.6841 7.05199 10.5638 6.99917 10.4474C6.88271 10.1909 6.76231 9.92569 6.82088 9.74443C6.8278 9.72305 6.83464 9.70216 6.84136 9.68173C6.93494 9.39654 7.02326 9.12723 6.85963 8.73512C6.80981 8.61571 6.73049 8.52845 6.66057 8.45145C6.61531 8.40166 6.56404 8.34522 6.55614 8.31274C6.54652 8.27312 6.54682 8.22737 6.54717 8.17441C6.5481 8.03154 6.54952 7.81566 6.3349 7.61468C6.03232 7.33145 5.67947 7.41871 5.44596 7.47646C5.37424 7.49418 5.30648 7.51097 5.24643 7.51802C4.86231 7.56303 4.51936 7.41811 4.30526 7.12017C4.08129 6.80853 4.04877 6.38916 4.22044 6.02576C4.30354 5.84992 4.42907 5.70863 4.57443 5.54511C4.60618 5.50938 4.63822 5.47334 4.67027 5.43642C4.72359 5.37496 4.78227 5.29172 4.84431 5.20359C4.91839 5.09845 5.05631 4.90267 5.11619 4.86543Z" fill="#333333"/>
<path d="M11.2116 9.41392L11.08 8.91807C11.0513 8.80979 10.9594 8.73001 10.8482 8.71672C10.7369 8.7037 10.6289 8.75937 10.5754 8.85784C10.5455 8.91307 10.5185 8.97159 10.4924 9.02816C10.4485 9.12334 10.4031 9.22178 10.3559 9.27611C10.3294 9.30663 10.2612 9.33952 10.1954 9.3713C10.038 9.44726 9.82236 9.5513 9.74 9.81385C9.68887 9.97671 9.70796 10.1056 9.7219 10.1996C9.73396 10.2812 9.73675 10.3095 9.7149 10.3608L9.71217 10.3671C9.62513 10.5714 9.4632 10.9516 9.69027 11.2748C9.85228 11.5055 10.0226 11.5648 10.155 11.5648C10.1808 11.5649 10.2053 11.5626 10.2279 11.5589C10.5068 11.5133 10.7165 11.2232 10.8878 10.6458L11.2094 9.56188C11.2237 9.51367 11.2245 9.46249 11.2116 9.41392ZM10.3636 10.4903C10.2763 10.7846 10.199 10.9221 10.1544 10.983C10.1493 10.9764 10.1437 10.969 10.1377 10.9605C10.0855 10.8861 10.1636 10.7027 10.2152 10.5814L10.218 10.575C10.3013 10.3794 10.2791 10.2292 10.2628 10.1195C10.2524 10.0492 10.2487 10.019 10.2617 9.97756C10.2725 9.94346 10.3365 9.91037 10.4331 9.86378C10.4758 9.84311 10.523 9.82039 10.5705 9.79288L10.3636 10.4903Z" fill="#333333"/>
<path d="M7.38366 3.25041L7.3652 3.24396C7.22282 3.19408 7.06669 3.26898 7.01671 3.41147C6.96672 3.55398 7.04173 3.70998 7.18421 3.75997L7.20264 3.76642C7.23258 3.77692 7.2631 3.7819 7.29315 3.7819C7.40602 3.7819 7.51168 3.71143 7.55116 3.59891C7.60115 3.45639 7.52614 3.30037 7.38366 3.25041Z" fill="#333333"/>
</g>
<defs>
<clipPath id="clip0">
<rect width="14" height="14" fill="white"/>
</clipPath>
</defs>
</svg>
