<svg width="30" height="30" viewBox="0 0 30 30" fill="none" xmlns="http://www.w3.org/2000/svg">
<circle cx="15" cy="15" r="14.5" stroke="#888888"/>
<path fill-rule="evenodd" clip-rule="evenodd" d="M19.8022 10.2248C19.1785 9.59693 18.4364 9.09911 17.6189 8.76013C16.8014 8.42116 15.9247 8.24777 15.0398 8.25002C11.3288 8.25002 8.30775 11.2703 8.30625 14.9828C8.30625 16.1693 8.616 17.3273 9.20475 18.3488L8.25 21.837L11.8192 20.9003C12.8065 21.4377 13.9126 21.7195 15.0367 21.72H15.0398C18.75 21.72 21.771 18.6998 21.7725 14.9873C21.775 14.1026 21.6022 13.2263 21.2641 12.4088C20.9259 11.5914 20.429 10.849 19.8022 10.2248ZM15.0398 20.5838H15.0375C14.0351 20.5839 13.0512 20.3142 12.189 19.803L11.985 19.6815L9.867 20.2373L10.4317 18.1725L10.299 17.961C9.73859 17.0688 9.44192 16.0364 9.44325 14.9828C9.44475 11.8973 11.955 9.38702 15.042 9.38702C15.7772 9.38539 16.5054 9.52958 17.1845 9.81126C17.8636 10.0929 18.4801 10.5065 18.9982 11.028C19.5192 11.5471 19.9321 12.1642 20.2132 12.8438C20.4942 13.5233 20.6377 14.2519 20.6355 14.9873C20.634 18.0728 18.1238 20.5838 15.0398 20.5838ZM18.1095 16.392C17.9408 16.3073 17.1143 15.9008 16.9598 15.8445C16.806 15.7883 16.6943 15.7605 16.5817 15.9285C16.4692 16.0965 16.1467 16.4753 16.0485 16.5878C15.9502 16.7003 15.852 16.7138 15.684 16.6298C15.516 16.5458 14.9737 16.368 14.331 15.795C13.8307 15.3488 13.4932 14.7983 13.395 14.6295C13.2967 14.4608 13.3845 14.37 13.4692 14.286C13.545 14.211 13.6372 14.0895 13.7213 13.9913C13.8053 13.893 13.833 13.8233 13.8892 13.7108C13.9455 13.5983 13.9177 13.5 13.875 13.416C13.833 13.3313 13.4962 12.5033 13.356 12.1665C13.2202 11.8403 13.0815 11.8838 12.978 11.8793C12.8708 11.8749 12.7635 11.8729 12.6562 11.8733C12.5709 11.8754 12.487 11.8952 12.4097 11.9314C12.3324 11.9675 12.2634 12.0192 12.207 12.0833C12.0525 12.252 11.6183 12.6585 11.6183 13.4865C11.6183 14.3145 12.2212 15.1148 12.3052 15.2273C12.3892 15.3398 13.4918 17.0385 15.1793 17.7675C15.5813 17.9408 15.8947 18.0443 16.1385 18.1223C16.5412 18.2505 16.908 18.2318 17.1982 18.189C17.5215 18.141 18.1935 17.7825 18.3337 17.3895C18.474 16.9965 18.474 16.6598 18.432 16.5893C18.39 16.5188 18.2767 16.476 18.1095 16.392Z" fill="#888888"/>
</svg>
