<svg width="14" height="14" viewBox="0 0 14 14" fill="none" xmlns="http://www.w3.org/2000/svg">
<path d="M7.00026 2.12305C5.31767 2.12305 3.94873 3.49193 3.94873 5.17452C3.94873 6.85711 5.31767 8.226 7.00026 8.226C8.68285 8.226 10.0518 6.85711 10.0518 5.17452C10.0518 3.49193 8.68285 2.12305 7.00026 2.12305ZM7.00026 7.40517C5.77025 7.40517 4.7695 6.40448 4.7695 5.17447C4.7695 3.94445 5.77025 2.94382 7.00026 2.94382C8.23027 2.94382 9.23101 3.94451 9.23101 5.17452C9.23101 6.40453 8.23033 7.40517 7.00026 7.40517Z" fill="#333333"/>
<path d="M7.00017 0C4.14694 0 1.82568 2.32126 1.82568 5.17449C1.82568 6.81998 3.20568 9.27152 4.02826 10.5863C4.56948 11.4514 5.15108 12.2747 5.66587 12.9045C6.49217 13.9154 6.78792 13.9999 7.00023 13.9999C7.21571 13.9999 7.49493 13.9153 8.31866 12.9039C8.8346 12.2703 9.41648 11.4475 9.95715 10.587C10.7854 9.26895 12.1747 6.81303 12.1747 5.17443C12.1747 2.32126 9.85346 0 7.00017 0ZM9.38813 9.94795C8.32682 11.6706 7.35245 12.8347 6.9953 13.1319C6.6363 12.8439 5.67774 11.7075 4.6016 9.95336C3.35911 7.92797 2.64651 6.18612 2.64651 5.17449C2.64646 2.77383 4.59952 0.820774 7.00017 0.820774C9.40083 0.820774 11.3539 2.77383 11.3539 5.17449C11.3539 6.18032 10.6374 7.92014 9.38813 9.94795Z" fill="#333333"/>
</svg>
