<svg width="14" height="14" viewBox="0 0 14 14" fill="none" xmlns="http://www.w3.org/2000/svg">
<g clip-path="url(#clip0)">
<path d="M10.6002 12.688C10.5244 12.5574 10.3572 12.513 10.2265 12.5887L10.2159 12.5948C10.0853 12.6705 10.0409 12.8379 10.1167 12.9685C10.1674 13.0559 10.2591 13.1047 10.3534 13.1047C10.3999 13.1047 10.4472 13.0928 10.4904 13.0677L10.5009 13.0617C10.6315 12.9859 10.6759 12.8186 10.6002 12.688Z" fill="#EA8917"/>
<path d="M13.0623 3.50314C12.1276 1.88425 10.6185 0.726271 8.81289 0.242451C7.00733 -0.241369 5.12138 0.00693923 3.50249 0.941576C1.88363 1.87621 0.725621 3.38537 0.241828 5.19096C-0.241965 6.99655 0.00631668 8.88253 0.940953 10.5014C1.77934 11.9535 3.11186 13.0572 4.69304 13.6089C5.44255 13.8704 6.225 14.0009 7.00624 14.0009C7.85567 14.0009 8.70357 13.8465 9.50504 13.5385C9.646 13.4843 9.71633 13.3262 9.66213 13.1852C9.60794 13.0442 9.44973 12.9738 9.30883 13.0281C7.17547 13.8481 4.86596 13.4755 3.14048 12.1803L3.38546 10.9016L3.5035 10.8633C3.94956 10.7184 4.19456 10.2375 4.04969 9.79146L3.96307 9.52489C3.94302 9.4632 3.94313 9.39799 3.96334 9.33635C4.03933 9.1047 4.01218 8.85125 3.88883 8.64092C3.76548 8.43062 3.55753 8.28315 3.31825 8.23637L2.7011 8.11578L1.51033 7.21043C1.43899 7.15618 1.34561 7.14035 1.26036 7.16802L0.5632 7.39448C0.548407 7.14513 0.548188 6.89587 0.562243 6.64792C0.58975 6.67354 0.60766 6.69095 0.61868 6.70238C0.632325 6.72511 0.649223 6.74594 0.66902 6.76399C0.72595 6.81583 0.77752 6.83935 0.885801 6.83935C0.985305 6.83932 1.13261 6.8195 1.37583 6.78357C1.6065 6.74947 1.83597 6.71105 1.83824 6.71067C1.9302 6.69528 2.00793 6.63403 2.04452 6.5483C2.08111 6.46255 2.07145 6.36409 2.01893 6.28703L1.68366 5.79528L2.16388 5.4519C2.19587 5.42901 2.22255 5.39951 2.24211 5.36538L2.98648 4.06587L3.28653 3.74436C3.59313 3.41575 3.68063 2.93496 3.50941 2.51945C3.4084 2.27436 3.23198 2.07033 3.01131 1.93281C3.2503 1.74494 3.50511 1.57147 3.77593 1.41514C4.76954 0.84147 5.85389 0.563467 6.92683 0.55283L6.43858 1.1653L4.62801 1.80003C4.55448 1.82579 4.49542 1.88174 4.46573 1.95376L3.96009 3.17953C3.92418 3.26662 3.93559 3.36598 3.9903 3.44265L4.7288 4.47712C4.62304 4.57362 4.52009 4.71417 4.39712 4.88867C4.3432 4.96521 4.29229 5.03748 4.25709 5.078C4.2265 5.11328 4.19587 5.14773 4.16552 5.18185C4.00668 5.36055 3.84245 5.54536 3.72578 5.79222C3.46924 6.33524 3.52105 6.96639 3.86099 7.43938C4.18969 7.8967 4.73159 8.12918 5.30997 8.06115C5.40419 8.0501 5.49205 8.02836 5.57706 8.00731C5.81148 7.94931 5.88574 7.94352 5.96094 8.0139C5.99752 8.04816 6.00089 8.05464 6.00015 8.17083C5.99963 8.24476 5.99905 8.33675 6.02454 8.44177C6.06536 8.6098 6.17088 8.72593 6.25565 8.81923C6.29779 8.86558 6.34137 8.91354 6.3548 8.94572C6.44008 9.15009 6.40295 9.26326 6.32157 9.51127C6.3146 9.53249 6.30749 9.55415 6.30036 9.57635C6.17673 9.95903 6.34905 10.3386 6.50109 10.6735C6.55047 10.7822 6.59709 10.8849 6.62763 10.9756C6.87348 11.7051 7.05778 11.8722 7.20568 11.9394C7.28315 11.9746 7.36332 11.9901 7.44431 11.9901C7.83847 11.99 8.24977 11.6241 8.43872 11.3921C8.55739 11.2464 8.58662 11.1005 8.60795 10.9939C8.61859 10.9409 8.62695 10.8991 8.64292 10.8718C8.66737 10.8299 8.69616 10.7975 8.73261 10.7564C8.80592 10.6739 8.89716 10.5712 8.95625 10.385C9.00115 10.2436 9.03377 10.2089 9.14181 10.0938C9.16062 10.0738 9.18066 10.0525 9.20218 10.0291C9.56638 9.63276 9.47259 9.33004 9.37325 9.00951C9.28966 8.73982 9.43586 8.56734 9.78936 8.23815C9.9426 8.09544 10.101 7.94789 10.2235 7.7706C10.2771 7.69299 10.4401 7.45693 10.3392 7.22295C10.2403 6.99354 9.98897 6.95499 9.78701 6.92403C9.70725 6.91178 9.58672 6.8933 9.54836 6.86822C9.37918 6.75762 9.27568 6.52678 9.17558 6.30352C9.15565 6.25909 9.13599 6.21523 9.11605 6.17265C9.0805 6.09669 9.04498 6.00479 9.00739 5.9075C8.90791 5.65003 8.79517 5.35819 8.60325 5.15476C8.43073 4.97196 8.10554 4.88392 7.81862 4.8062C7.72212 4.78009 7.63104 4.75543 7.57097 4.73325C7.52063 4.71466 7.46599 4.7113 7.41388 4.72355C7.27423 4.75628 7.18711 4.79234 7.12242 4.84419C7.10533 4.85788 7.05472 4.90287 7.02507 4.97516C6.92497 4.92712 6.78732 4.83538 6.70261 4.77892C6.70086 4.77774 6.69908 4.77656 6.69733 4.77539C6.72588 4.66115 6.70004 4.56946 6.67297 4.51221C6.52023 4.18911 6.01319 4.2144 5.91317 4.22291C5.85635 4.22767 5.78446 4.23021 5.70842 4.23289C5.58898 4.23713 5.45697 4.24188 5.32634 4.25654L5.33307 4.23778C5.43222 3.96153 5.69603 3.77592 5.98954 3.77592H6.14499C6.29595 3.77592 6.4184 3.65347 6.4184 3.50251C6.4184 3.35155 6.29595 3.2291 6.14499 3.2291H5.98954C5.55379 3.2291 5.15476 3.45843 4.93112 3.8194L4.52329 3.2481L4.92453 2.27551L6.69375 1.65525C6.74226 1.63824 6.78502 1.60789 6.8171 1.56767L7.60359 0.581131C9.61319 0.772291 11.5048 1.89902 12.5888 3.77649C12.8775 4.27658 13.0911 4.80306 13.2331 5.34154L13.1172 5.4449C12.9659 5.5799 12.8772 5.77352 12.8738 5.97616C12.8738 5.97838 12.8738 5.98056 12.8737 5.98275L12.6848 5.46344C12.6567 5.38595 12.6153 5.31488 12.5617 5.25224L12.2249 4.85786C12.0943 4.70498 11.9041 4.61734 11.7031 4.61734H11.2908C11.1444 4.61734 11.0107 4.69751 10.9416 4.82649C10.8726 4.9555 10.8801 5.11131 10.9613 5.23304L11.003 5.29569C10.7366 5.5248 10.4284 5.70814 10.1003 5.83179L9.53512 4.74917V4.50764C9.53512 4.43294 9.50455 4.36143 9.45049 4.30989L8.94154 3.82402C8.91346 3.79722 8.87999 3.77671 8.84338 3.76383L8.38523 3.60283C8.24269 3.55269 8.08667 3.62769 8.03663 3.77012C7.98656 3.91261 8.06146 4.06866 8.20392 4.11873L8.60653 4.26023L8.9883 4.62464V4.81627C8.9883 4.86032 8.99897 4.90374 9.01936 4.94281L9.72694 6.29816C9.79057 6.42012 9.935 6.47584 10.0639 6.42815L10.2699 6.35219C10.7486 6.17566 11.1922 5.8917 11.553 5.53103C11.6451 5.43886 11.6594 5.29451 11.5871 5.18604L11.5726 5.16419H11.7031C11.7439 5.16419 11.7826 5.18199 11.8091 5.21305L12.146 5.60743C12.1568 5.62015 12.1652 5.63453 12.1709 5.65031L12.5427 6.6725C12.5746 6.76033 12.6492 6.82573 12.7404 6.84597C12.7601 6.85031 12.7799 6.85245 12.7996 6.85245C12.8713 6.85245 12.9411 6.8242 12.9929 6.77236L13.1699 6.59542C13.2819 6.48333 13.3591 6.34153 13.3959 6.18433C13.6696 8.37744 12.8096 10.6461 10.992 12.0727C10.8732 12.1659 10.8525 12.3378 10.9457 12.4566C11.0389 12.5754 11.2108 12.5961 11.3296 12.5029C12.6419 11.4729 13.5434 9.99977 13.8681 8.35479C14.1959 6.69396 13.9097 4.9709 13.0623 3.50314ZM1.29322 7.73231L2.42069 8.58957C2.45402 8.61491 2.49268 8.63225 2.53375 8.64026L3.2133 8.77304C3.30004 8.79 3.37239 8.84129 3.41709 8.91753C3.4618 8.99374 3.47121 9.08192 3.4437 9.16589C3.3871 9.33851 3.38682 9.52109 3.44296 9.69382L3.52959 9.96037C3.58135 10.1197 3.49379 10.2914 3.33452 10.3432L3.0628 10.4315C2.968 10.4623 2.89751 10.5422 2.87878 10.64L2.66008 11.7816C2.1793 11.3416 1.75716 10.8215 1.41452 10.228C0.996489 9.50403 0.735301 8.73181 0.620184 7.95098L1.29322 7.73231ZM2.88673 3.37129L2.56509 3.7159C2.55073 3.73129 2.53818 3.7483 2.52771 3.76657L1.79731 5.04177L1.14814 5.50596C1.02722 5.59242 0.997528 5.75957 1.08125 5.8824L1.32404 6.23853C1.18409 6.25936 1.0585 6.27653 0.974996 6.28564C0.958946 6.27024 0.942157 6.25463 0.924793 6.2385C0.859797 6.17812 0.769481 6.09749 0.63484 5.97966C0.856899 4.60528 1.51916 3.3105 2.56074 2.32216C2.76019 2.38497 2.92387 2.53375 3.00382 2.72781C3.09378 2.94606 3.04779 3.19867 2.88673 3.37129ZM5.11607 4.86543C5.23802 4.7968 5.52109 4.78676 5.72775 4.77944C5.81057 4.77651 5.88883 4.77372 5.95872 4.76787C5.99561 4.76478 6.03657 4.76535 6.07521 4.76836C6.05795 4.81266 6.05235 4.86128 6.05984 4.90951C6.07299 4.99436 6.1253 5.06805 6.20099 5.10855C6.25229 5.136 6.32368 5.1836 6.39926 5.234C6.61295 5.37646 6.85519 5.53792 7.08274 5.55242C7.28968 5.56584 7.40483 5.44791 7.45415 5.39768C7.45809 5.39369 7.46181 5.38969 7.46575 5.38606C7.49353 5.36342 7.51956 5.33306 7.53892 5.29645C7.58264 5.30895 7.62858 5.32139 7.67566 5.33416C7.83757 5.37799 8.13892 5.45958 8.2055 5.53013C8.32377 5.6555 8.41594 5.89413 8.49729 6.10465C8.53839 6.21104 8.57722 6.31145 8.62077 6.40456C8.63948 6.44451 8.65788 6.48566 8.67658 6.52733C8.80275 6.80875 8.94576 7.12774 9.24913 7.32604C9.3867 7.41597 9.55533 7.44181 9.70413 7.46465C9.72213 7.46741 9.74274 7.47058 9.76369 7.47402C9.67537 7.59724 9.54961 7.71432 9.41675 7.83805C9.07826 8.15327 8.657 8.5456 8.85101 9.17147C8.94258 9.467 8.94685 9.49894 8.7996 9.65912C8.77953 9.68097 8.76083 9.70087 8.7433 9.71952C8.61719 9.85378 8.51758 9.95982 8.43511 10.2196C8.41116 10.295 8.38012 10.33 8.32377 10.3934C8.2787 10.4442 8.22257 10.5074 8.1708 10.596C8.10879 10.7021 8.08828 10.8043 8.07185 10.8864C8.05563 10.9672 8.04645 11.0078 8.01473 11.0467C7.94251 11.1354 7.80782 11.2641 7.66954 11.352C7.54102 11.4336 7.46599 11.4447 7.44043 11.4432C7.41125 11.4119 7.30557 11.2749 7.14588 10.801C7.1065 10.6841 7.05187 10.5638 6.99904 10.4474C6.88259 10.1909 6.76219 9.92569 6.82076 9.74443C6.82768 9.72305 6.83452 9.70216 6.84124 9.68173C6.93481 9.39654 7.02313 9.12723 6.85951 8.73512C6.80969 8.61571 6.73036 8.52845 6.66045 8.45145C6.61519 8.40166 6.56392 8.34522 6.55602 8.31274C6.54639 8.27312 6.5467 8.22737 6.54705 8.17441C6.54798 8.03154 6.5494 7.81566 6.33478 7.61468C6.0322 7.33145 5.67935 7.41871 5.44584 7.47646C5.37411 7.49418 5.30636 7.51097 5.24631 7.51802C4.86218 7.56303 4.51924 7.41811 4.30514 7.12017C4.08116 6.80853 4.04865 6.38916 4.22032 6.02576C4.30341 5.84992 4.42895 5.70863 4.57431 5.54511C4.60606 5.50938 4.6381 5.47334 4.67015 5.43642C4.72347 5.37496 4.78215 5.29172 4.84419 5.20359C4.91827 5.09845 5.05619 4.90267 5.11607 4.86543Z" fill="#EA8917"/>
<path d="M11.2116 9.41392L11.08 8.91807C11.0513 8.80979 10.9594 8.73001 10.8482 8.71672C10.7369 8.7037 10.6289 8.75937 10.5754 8.85784C10.5455 8.91307 10.5185 8.97159 10.4924 9.02816C10.4485 9.12334 10.4031 9.22178 10.3559 9.27611C10.3294 9.30663 10.2612 9.33952 10.1954 9.3713C10.038 9.44726 9.82236 9.5513 9.74 9.81385C9.68887 9.97671 9.70796 10.1056 9.7219 10.1996C9.73396 10.2812 9.73675 10.3095 9.7149 10.3608L9.71217 10.3671C9.62513 10.5714 9.4632 10.9516 9.69027 11.2748C9.85228 11.5055 10.0226 11.5648 10.155 11.5648C10.1808 11.5649 10.2053 11.5626 10.2279 11.5589C10.5068 11.5133 10.7165 11.2232 10.8878 10.6458L11.2094 9.56188C11.2237 9.51367 11.2245 9.46249 11.2116 9.41392ZM10.3636 10.4903C10.2763 10.7846 10.199 10.9221 10.1544 10.983C10.1493 10.9764 10.1437 10.969 10.1377 10.9605C10.0855 10.8861 10.1636 10.7027 10.2152 10.5814L10.218 10.575C10.3013 10.3794 10.2791 10.2292 10.2628 10.1195C10.2524 10.0492 10.2487 10.019 10.2617 9.97756C10.2725 9.94346 10.3365 9.91037 10.4331 9.86378C10.4758 9.84311 10.523 9.82039 10.5705 9.79288L10.3636 10.4903Z" fill="#EA8917"/>
<path d="M7.38378 3.25041L7.36532 3.24396C7.22294 3.19408 7.06681 3.26898 7.01683 3.41147C6.96685 3.55398 7.04185 3.70998 7.18434 3.75997L7.20277 3.76642C7.23271 3.77692 7.26322 3.7819 7.29327 3.7819C7.40615 3.7819 7.5118 3.71143 7.55128 3.59891C7.60127 3.45639 7.52627 3.30037 7.38378 3.25041Z" fill="#EA8917"/>
</g>
<defs>
<clipPath id="clip0">
<rect width="14" height="14" fill="white"/>
</clipPath>
</defs>
</svg>
