<svg width="40" height="40" viewBox="0 0 40 40" fill="none" xmlns="http://www.w3.org/2000/svg">
<path d="M35.2786 13.2374L39.6687 8.81172C39.7986 8.68062 39.8592 8.49609 39.8323 8.31359C39.8054 8.13102 39.694 7.9718 39.5319 7.88391L25.1181 0.0715625C24.8901 -0.0519531 24.6079 -0.0110937 24.4246 0.172344L19.9997 4.59727L15.5751 0.172656C15.4649 0.0617188 15.3172 0 15.1618 0C15.0641 0 14.968 0.0249219 14.8821 0.071875L10.2525 2.58031C10.115 2.65531 10.015 2.77875 9.97045 2.92875C9.92592 3.07875 9.94232 3.23734 10.0165 3.37484C10.1197 3.56391 10.3173 3.68195 10.5322 3.68195C10.629 3.68195 10.7259 3.65695 10.8111 3.61086L15.0555 1.31016L19.0297 5.2843L5.6542 12.5138L1.71365 8.54117L8.75021 4.72727C8.88849 4.65305 8.98849 4.52961 9.03303 4.37961C9.07756 4.22961 9.06115 4.07102 8.98615 3.93352C8.88381 3.74445 8.68615 3.62648 8.47131 3.62648C8.37443 3.62648 8.27834 3.65141 8.1924 3.6975L0.468338 7.88422C0.30662 7.97086 0.19412 8.13188 0.167557 8.31391C0.140995 8.49508 0.20201 8.68102 0.33162 8.81156L4.72123 13.2376L0.331307 17.6632C0.201385 17.7943 0.14076 17.9788 0.167635 18.1613C0.194588 18.3439 0.305917 18.5031 0.468104 18.591L4.96131 21.0263V31.6001C4.96123 31.6203 4.96224 31.6405 4.96428 31.6604C4.96514 31.6689 4.96678 31.6772 4.96795 31.6856C4.96943 31.6959 4.9706 31.7061 4.97264 31.7162C4.97514 31.7289 4.97857 31.7412 4.98185 31.7537C4.98342 31.7594 4.98459 31.7652 4.98631 31.7709C4.99014 31.7834 4.99474 31.7957 4.99935 31.808C5.00139 31.8135 5.0031 31.8191 5.00537 31.8245C5.0099 31.8355 5.01514 31.8461 5.02029 31.8567C5.0235 31.8634 5.02639 31.87 5.02982 31.8765C5.03451 31.8852 5.03974 31.8936 5.04474 31.902C5.04959 31.9101 5.0542 31.9182 5.05935 31.9261C5.06365 31.9326 5.06849 31.9387 5.0731 31.9451C5.07974 31.9542 5.08631 31.9635 5.09349 31.9724C5.09748 31.9773 5.10193 31.9819 5.10607 31.9866C5.11435 31.9962 5.12264 32.0057 5.13154 32.0147C5.13615 32.0193 5.14123 32.0235 5.146 32.0281C5.1549 32.0365 5.16365 32.0449 5.1731 32.0527C5.18224 32.0603 5.19193 32.0672 5.20146 32.0741C5.20709 32.0783 5.21232 32.0827 5.2181 32.0866C5.2349 32.098 5.25232 32.1085 5.27029 32.1182L19.7183 39.928C19.7391 39.9395 19.7608 39.9493 19.7831 39.9582C19.7879 39.9601 19.7929 39.9618 19.7978 39.9635C19.814 39.9695 19.8305 39.9748 19.8475 39.9793C19.8536 39.9809 19.8596 39.9826 19.8657 39.984C19.8821 39.9878 19.8987 39.9909 19.9156 39.9933C19.9214 39.9941 19.927 39.9952 19.9328 39.9959C19.9548 39.9984 19.9772 40 19.9999 40C20.0226 40 20.045 39.9984 20.067 39.9959C20.0728 39.9952 20.0785 39.9941 20.0843 39.9933C20.1012 39.9909 20.1178 39.9878 20.1341 39.984C20.1402 39.9826 20.1463 39.9809 20.1523 39.9793C20.1692 39.9748 20.1858 39.9695 20.2019 39.9635C20.2069 39.9618 20.2118 39.9601 20.2166 39.9582C20.2388 39.9493 20.2605 39.9395 20.2813 39.928L34.7294 32.1182C34.7473 32.1085 34.7647 32.098 34.7815 32.0866C34.7873 32.0827 34.7926 32.0782 34.7982 32.0741C34.8078 32.0671 34.8175 32.0602 34.8265 32.0527C34.836 32.0449 34.8447 32.0365 34.8537 32.0281C34.8584 32.0235 34.8635 32.0194 34.8681 32.0147C34.877 32.0057 34.8853 31.9962 34.8936 31.9866C34.8977 31.9819 34.9022 31.9773 34.9062 31.9724C34.9133 31.9636 34.9199 31.9543 34.9265 31.9451C34.9312 31.9387 34.936 31.9326 34.9403 31.9261C34.9454 31.9182 34.9501 31.9102 34.9549 31.902C34.96 31.8936 34.9652 31.8852 34.9698 31.8765C34.9733 31.87 34.9762 31.8634 34.9794 31.8567C34.9845 31.8461 34.9897 31.8355 34.9943 31.8245C34.9965 31.8191 34.9983 31.8135 35.0003 31.808C35.0049 31.7958 35.0095 31.7835 35.0133 31.7709C35.0151 31.7652 35.0162 31.7595 35.0178 31.7537C35.0211 31.7412 35.0245 31.7289 35.027 31.7162C35.029 31.7061 35.0302 31.6959 35.0317 31.6856C35.0329 31.6772 35.0346 31.6689 35.0354 31.6604C35.0374 31.6404 35.0384 31.6202 35.0383 31.6001V21.0263L39.5313 18.5911C39.693 18.5036 39.8055 18.3427 39.8321 18.1614C39.8587 17.9794 39.7977 17.7934 39.6688 17.663L35.2786 13.2374ZM24.944 1.31023L38.286 8.54156L34.3455 12.5141L20.9702 5.28406L24.944 1.31023ZM5.82388 20.161L1.71389 17.9334L5.65435 13.9609L19.0297 21.1909L15.0558 25.1647L5.82889 20.1637C5.82724 20.1627 5.8256 20.1619 5.82388 20.161ZM19.414 38.4313L6.1331 31.2523V21.6615L14.8819 26.4034C14.9697 26.4509 15.0657 26.4741 15.1608 26.4741C15.3126 26.4741 15.4626 26.4152 15.5754 26.3026L19.414 22.4639V38.4313ZM20 20.3832L6.78068 13.2376L20.0003 6.09188L33.2196 13.2375L20 20.3832ZM34.1783 20.1598C34.1751 20.1615 34.172 20.1632 34.1689 20.1649L31.2497 21.7472C31.1115 21.8214 31.0115 21.9456 30.9669 22.0956C30.9224 22.2457 30.9388 22.4042 31.013 22.5418C31.1162 22.7309 31.3138 22.848 31.5287 22.848C31.6255 22.848 31.7224 22.8237 31.8076 22.7777L33.8668 21.6616V31.2525L20.5859 38.4314V22.4636L24.4249 26.3026C24.5359 26.4135 24.6827 26.4745 24.839 26.4745C24.9358 26.4745 25.0319 26.4495 25.1179 26.4034L29.7475 23.8941C29.885 23.8198 29.985 23.6956 30.0295 23.5456C30.074 23.3956 30.0576 23.2378 29.9834 23.1003C29.8803 22.9105 29.6826 22.7933 29.467 22.7933C29.3709 22.7933 29.274 22.8175 29.1889 22.8644L24.9444 25.1642L20.9703 21.1909L34.3458 13.9605L38.2864 17.9332L34.1783 20.1598Z" fill="white"/>
</svg>
