<svg width="20" height="20" viewBox="0 0 20 20" fill="none" xmlns="http://www.w3.org/2000/svg">
<g clip-path="url(#clip0)">
<path d="M0.292969 14.6028C0.454712 14.6028 0.585938 14.4717 0.585938 14.3098V5.77698H17.8957V8.99734C17.8957 9.15924 18.0269 9.29031 18.1886 9.29031C18.3505 9.29031 18.4816 9.15924 18.4816 8.99734V3.2074C18.4816 2.22519 17.6825 1.42609 16.7004 1.42609H15.9322V1.06323C15.9322 0.670776 15.6129 0.351562 15.2205 0.351562H14.6762C14.2839 0.351562 13.9647 0.670776 13.9647 1.06323V1.42609H12.0216V1.06323C12.0216 0.670776 11.7024 0.351562 11.31 0.351562H10.7657C10.3734 0.351562 10.0542 0.670776 10.0542 1.06323V1.42609H8.11096V1.06323C8.11096 0.670776 7.79175 0.351562 7.39929 0.351562H6.85516C6.46271 0.351562 6.14349 0.670776 6.14349 1.06323V1.42609H4.20044V1.06323C4.20044 0.670776 3.88123 0.351562 3.48877 0.351562H2.94464C2.55219 0.351562 2.23297 0.670776 2.23297 1.06323V1.42609H1.78131C0.799103 1.42609 0 2.22519 0 3.2074V14.3098C0 14.4717 0.131226 14.6028 0.292969 14.6028ZM14.5506 1.06323C14.5506 0.993958 14.6071 0.9375 14.6764 0.9375H15.2206C15.2899 0.9375 15.3462 0.993958 15.3462 1.06323V2.48657C15.3462 2.55585 15.2899 2.6123 15.2206 2.6123H14.6764C14.6071 2.6123 14.5506 2.556 14.5506 2.48657V1.06323ZM10.6401 1.06323C10.6401 0.993958 10.6964 0.9375 10.7657 0.9375H11.31C11.3792 0.9375 11.4357 0.993958 11.4357 1.06323V2.48657C11.4357 2.55585 11.3792 2.6123 11.31 2.6123H10.7657C10.6964 2.6123 10.6401 2.556 10.6401 2.48657V1.06323ZM6.72943 1.06323C6.72943 0.993958 6.78589 0.9375 6.85516 0.9375H7.39944C7.46872 0.9375 7.52518 0.993958 7.52518 1.06323V2.48657C7.52518 2.55585 7.46872 2.6123 7.39944 2.6123H6.85516C6.78589 2.6123 6.72943 2.556 6.72943 2.48657V1.06323ZM2.81891 1.06323C2.81891 0.993958 2.87537 0.9375 2.94464 0.9375H3.48892C3.5582 0.9375 3.6145 0.993958 3.6145 1.06323V2.48657C3.6145 2.55585 3.5582 2.6123 3.48892 2.6123H2.94464C2.87537 2.6123 2.81891 2.556 2.81891 2.48657V1.06323ZM1.78131 2.01202H2.23297V2.48657C2.23297 2.87903 2.55219 3.19824 2.94464 3.19824H3.48892C3.88123 3.19824 4.20044 2.87903 4.20044 2.48657V2.01202H6.14365V2.48657C6.14365 2.87903 6.46286 3.19824 6.85516 3.19824H7.39944C7.7919 3.19824 8.11111 2.87903 8.11111 2.48657V2.01202H10.0542V2.48657C10.0542 2.87903 10.3734 3.19824 10.7658 3.19824H11.3101C11.7024 3.19824 12.0216 2.87903 12.0216 2.48657V2.01202H13.9647V2.48657C13.9647 2.87903 14.2839 3.19824 14.6764 3.19824H15.2206C15.6129 3.19824 15.9322 2.87903 15.9322 2.48657V2.01202H16.7004C17.3596 2.01202 17.8958 2.54822 17.8958 3.2074V5.19104H0.585938V3.2074C0.585938 2.54822 1.12213 2.01202 1.78131 2.01202Z" fill="white"/>
<path d="M3.3168 17.3275H0.762177C0.664978 17.3275 0.585938 17.2484 0.585938 17.1512V15.645C0.585938 15.4831 0.454712 15.3521 0.292969 15.3521C0.131226 15.3521 0 15.4831 0 15.645V17.1512C0 17.5714 0.341949 17.9134 0.762177 17.9134H3.3168C3.47855 17.9134 3.60977 17.7822 3.60977 17.6204C3.60977 17.4585 3.47855 17.3275 3.3168 17.3275Z" fill="white"/>
<path d="M3.30719 6.63135H2.28882C2.12708 6.63135 1.99585 6.76257 1.99585 6.92432C1.99585 7.08621 2.12708 7.21729 2.28882 7.21729H3.30719C3.46893 7.21729 3.60016 7.08621 3.60016 6.92432C3.60016 6.76257 3.46893 6.63135 3.30719 6.63135Z" fill="white"/>
<path d="M5.41821 7.21729H6.43658C6.59833 7.21729 6.72955 7.08621 6.72955 6.92432C6.72955 6.76257 6.59833 6.63135 6.43658 6.63135H5.41821C5.25647 6.63135 5.12524 6.76257 5.12524 6.92432C5.12524 7.08621 5.25647 7.21729 5.41821 7.21729Z" fill="white"/>
<path d="M8.54785 7.21729H9.56607C9.72781 7.21729 9.85904 7.08621 9.85904 6.92432C9.85904 6.76257 9.72781 6.63135 9.56607 6.63135H8.54785C8.38596 6.63135 8.25488 6.76257 8.25488 6.92432C8.25488 7.08621 8.38596 7.21729 8.54785 7.21729Z" fill="white"/>
<path d="M11.6772 7.21729H12.6956C12.8574 7.21729 12.9886 7.08621 12.9886 6.92432C12.9886 6.76257 12.8574 6.63135 12.6956 6.63135H11.6772C11.5155 6.63135 11.3843 6.76257 11.3843 6.92432C11.3843 7.08621 11.5155 7.21729 11.6772 7.21729Z" fill="white"/>
<path d="M15.8249 6.63135H14.8066C14.6447 6.63135 14.5137 6.76257 14.5137 6.92432C14.5137 7.08621 14.6447 7.21729 14.8066 7.21729H15.8249C15.9866 7.21729 16.1178 7.08621 16.1178 6.92432C16.1178 6.76257 15.9866 6.63135 15.8249 6.63135Z" fill="white"/>
<path d="M3.30719 8.10449H2.28882C2.12708 8.10449 1.99585 8.23557 1.99585 8.39746C1.99585 8.55936 2.12708 8.69043 2.28882 8.69043H3.30719C3.46893 8.69043 3.60016 8.55936 3.60016 8.39746C3.60016 8.23557 3.46893 8.10449 3.30719 8.10449Z" fill="white"/>
<path d="M5.41821 8.69043H6.43658C6.59833 8.69043 6.72955 8.55936 6.72955 8.39746C6.72955 8.23557 6.59833 8.10449 6.43658 8.10449H5.41821C5.25647 8.10449 5.12524 8.23557 5.12524 8.39746C5.12524 8.55936 5.25647 8.69043 5.41821 8.69043Z" fill="white"/>
<path d="M8.54785 8.69043H9.56607C9.72781 8.69043 9.85904 8.55936 9.85904 8.39746C9.85904 8.23557 9.72781 8.10449 9.56607 8.10449H8.54785C8.38596 8.10449 8.25488 8.23557 8.25488 8.39746C8.25488 8.55936 8.38596 8.69043 8.54785 8.69043Z" fill="white"/>
<path d="M11.6772 8.69043H12.6956C12.8574 8.69043 12.9886 8.55936 12.9886 8.39746C12.9886 8.23557 12.8574 8.10449 12.6956 8.10449H11.6772C11.5155 8.10449 11.3843 8.23557 11.3843 8.39746C11.3843 8.55936 11.5155 8.69043 11.6772 8.69043Z" fill="white"/>
<path d="M15.8249 8.10449H14.8066C14.6447 8.10449 14.5137 8.23557 14.5137 8.39746C14.5137 8.55936 14.6447 8.69043 14.8066 8.69043H15.8249C15.9866 8.69043 16.1178 8.55936 16.1178 8.39746C16.1178 8.23557 15.9866 8.10449 15.8249 8.10449Z" fill="white"/>
<path d="M5.42528 14.4419L6.93163 15.9482C7.14952 16.1661 7.43914 16.286 7.74736 16.286C8.05559 16.286 8.34536 16.1661 8.5631 15.9482L12.6883 11.823C13.1381 11.3732 13.1381 10.6412 12.6883 10.1914C12.2385 9.74155 11.5065 9.74155 11.0567 10.1914L7.74736 13.5007L7.05675 12.8102C6.60707 12.3604 5.87511 12.3604 5.42513 12.8102C4.97545 13.2601 4.97545 13.992 5.42528 14.4419ZM5.83956 13.2245C5.95018 13.1139 6.0956 13.0585 6.24102 13.0585C6.38643 13.0585 6.53185 13.1139 6.64248 13.2245L7.54015 14.1222C7.65459 14.2366 7.83998 14.2366 7.95443 14.1222L11.471 10.6058C11.6925 10.3844 12.0526 10.3844 12.2739 10.6057C12.4953 10.8271 12.4953 11.1873 12.2739 11.4087L8.14882 15.5338C8.04155 15.6411 7.89904 15.7001 7.74736 15.7001C7.59569 15.7001 7.45317 15.6411 7.34591 15.5338L5.83956 14.0274C5.61815 13.806 5.61815 13.4459 5.83956 13.2245Z" fill="white"/>
<path d="M18.4814 12.6703V10.3325C18.4814 10.1706 18.3503 10.0396 18.1884 10.0396C18.0267 10.0396 17.8955 10.1706 17.8955 10.3325V12.2966C17.3613 12.0197 16.755 11.863 16.1129 11.863C13.9697 11.863 12.2261 13.6066 12.2261 15.7498C12.2261 16.3112 12.3459 16.845 12.5609 17.3275H4.65161C4.48987 17.3275 4.35864 17.4585 4.35864 17.6204C4.35864 17.7822 4.48987 17.9134 4.65161 17.9134H12.8854C13.5838 18.9521 14.7699 19.6367 16.1129 19.6367C18.2562 19.6367 19.9998 17.8931 19.9998 15.7498C19.9998 14.4974 19.4041 13.3815 18.4814 12.6703ZM16.1129 19.0508C14.2927 19.0508 12.812 17.5701 12.812 15.7498C12.812 13.9296 14.2929 12.4489 16.1129 12.4489C17.933 12.4489 19.4139 13.9296 19.4139 15.7498C19.4139 17.5701 17.933 19.0508 16.1129 19.0508Z" fill="white"/>
<path d="M16.1133 12.8721C14.5265 12.8721 13.2356 14.1631 13.2356 15.7497C13.2356 17.3365 14.5265 18.6274 16.1133 18.6274C17.7 18.6274 18.9908 17.3365 18.9908 15.7497C18.9908 14.1631 17.6999 12.8721 16.1133 12.8721ZM16.3755 18.0259C16.3949 17.9867 16.4062 17.9427 16.4062 17.896V17.5391C16.4062 17.3774 16.275 17.2462 16.1133 17.2462C15.9515 17.2462 15.8203 17.3774 15.8203 17.5391V17.896C15.8203 17.9427 15.8314 17.9867 15.851 18.0259C14.7966 17.9052 13.9578 17.0664 13.8371 16.012C13.8762 16.0316 13.9203 16.0427 13.9669 16.0427H14.3237C14.4856 16.0427 14.6167 15.9116 14.6167 15.7497C14.6167 15.5878 14.4856 15.4568 14.3237 15.4568H13.9669C13.9203 15.4568 13.8762 15.468 13.8371 15.4874C13.9578 14.433 14.7966 13.5943 15.851 13.4736C15.8314 13.5128 15.8203 13.5567 15.8203 13.6034V13.9603C15.8203 14.1222 15.9515 14.2533 16.1133 14.2533C16.275 14.2533 16.4062 14.1222 16.4062 13.9603V13.6034C16.4062 13.5567 16.3949 13.5128 16.3755 13.4736C17.4299 13.5943 18.2687 14.433 18.3894 15.4874C18.3502 15.468 18.3062 15.4568 18.2596 15.4568H17.9026C17.7409 15.4568 17.6097 15.5878 17.6097 15.7497C17.6097 15.9116 17.7409 16.0427 17.9026 16.0427H18.2596C18.3062 16.0427 18.3502 16.0316 18.3894 16.012C18.2686 17.0664 17.4299 17.9052 16.3755 18.0259Z" fill="white"/>
<path d="M16.759 15.4569H16.4062V15.1565C16.4062 14.9948 16.275 14.8635 16.1133 14.8635C15.9514 14.8635 15.8203 14.9948 15.8203 15.1565V15.7499C15.8203 15.9118 15.9514 16.0429 16.1133 16.0429H16.759C16.9208 16.0429 17.052 15.9118 17.052 15.7499C17.052 15.588 16.9208 15.4569 16.759 15.4569Z" fill="white"/>
</g>
<defs>
<clipPath id="clip0">
<rect width="20" height="20" fill="white"/>
</clipPath>
</defs>
</svg>
