<svg width="20" height="20" viewBox="0 0 20 20" fill="none" xmlns="http://www.w3.org/2000/svg">
<path d="M17.6394 6.61871L19.8344 4.40586C19.8994 4.34031 19.9297 4.24805 19.9163 4.1568C19.9028 4.06551 19.8471 3.9859 19.7661 3.94195L12.5592 0.0357812C12.4452 -0.0259766 12.3041 -0.00554687 12.2124 0.0861719L9.99996 2.29863L7.78765 0.0863281C7.73257 0.0308594 7.65875 0 7.58101 0C7.53218 0 7.48414 0.0124609 7.44117 0.0359375L5.12636 1.29016C5.05761 1.32766 5.00761 1.38938 4.98535 1.46438C4.96308 1.53938 4.97128 1.61867 5.00839 1.68742C5.05996 1.78195 5.15878 1.84098 5.26621 1.84098C5.31464 1.84098 5.36308 1.82848 5.40566 1.80543L7.52789 0.655078L9.51496 2.64215L2.82722 6.25691L0.856948 4.27059L4.37523 2.36363C4.44437 2.32652 4.49437 2.2648 4.51664 2.1898C4.5389 2.1148 4.5307 2.03551 4.4932 1.96676C4.44203 1.87223 4.3432 1.81324 4.23578 1.81324C4.18734 1.81324 4.13929 1.8257 4.09632 1.84875L0.234291 3.94211C0.153432 3.98543 0.0971819 4.06594 0.0839007 4.15695C0.0706194 4.24754 0.101127 4.34051 0.165932 4.40578L2.36074 6.61879L0.165776 8.8316C0.100815 8.89715 0.0705022 8.98941 0.0839398 9.08066C0.0974163 9.17195 0.15308 9.25156 0.234174 9.29551L2.48078 10.5132V15.8C2.48074 15.8102 2.48124 15.8202 2.48226 15.8302C2.48269 15.8345 2.48351 15.8386 2.4841 15.8428C2.48484 15.8479 2.48542 15.853 2.48644 15.8581C2.48769 15.8645 2.48941 15.8706 2.49105 15.8768C2.49183 15.8797 2.49242 15.8826 2.49328 15.8854C2.49519 15.8917 2.49749 15.8979 2.4998 15.904C2.50082 15.9068 2.50167 15.9095 2.50281 15.9122C2.50507 15.9178 2.50769 15.923 2.51027 15.9284C2.51187 15.9317 2.51332 15.935 2.51503 15.9382C2.51738 15.9426 2.51999 15.9468 2.52249 15.951C2.52492 15.955 2.52722 15.9591 2.5298 15.963C2.53195 15.9663 2.53437 15.9694 2.53667 15.9725C2.53999 15.9771 2.54328 15.9818 2.54687 15.9862C2.54886 15.9887 2.55109 15.9909 2.55316 15.9933C2.5573 15.9981 2.56144 16.0029 2.56589 16.0073C2.5682 16.0096 2.57074 16.0118 2.57312 16.0141C2.57757 16.0182 2.58195 16.0225 2.58667 16.0264C2.59124 16.0302 2.59609 16.0336 2.60085 16.0371C2.60367 16.0391 2.60628 16.0413 2.60917 16.0433C2.61757 16.049 2.62628 16.0543 2.63527 16.0591L9.85929 19.964C9.86968 19.9697 9.88054 19.9746 9.89167 19.9791C9.8941 19.98 9.89656 19.9809 9.89902 19.9818C9.90714 19.9848 9.91539 19.9874 9.92386 19.9896C9.92691 19.9905 9.92992 19.9913 9.93296 19.992C9.94117 19.9939 9.94949 19.9954 9.95792 19.9966C9.96082 19.997 9.96363 19.9976 9.96652 19.9979C9.97753 19.9992 9.98871 20 10.0001 20C10.0114 20 10.0226 19.9992 10.0336 19.9979C10.0365 19.9976 10.0394 19.997 10.0423 19.9966C10.0507 19.9954 10.059 19.9939 10.0672 19.992C10.0702 19.9913 10.0733 19.9905 10.0763 19.9896C10.0847 19.9874 10.093 19.9848 10.1011 19.9818C10.1036 19.9809 10.106 19.98 10.1084 19.9791C10.1195 19.9746 10.1304 19.9697 10.1408 19.964L17.3648 16.0591C17.3738 16.0543 17.3825 16.049 17.3909 16.0433C17.3938 16.0413 17.3964 16.0391 17.3992 16.0371C17.404 16.0336 17.4089 16.0301 17.4134 16.0264C17.4181 16.0225 17.4225 16.0182 17.427 16.0141C17.4293 16.0118 17.4319 16.0097 17.4342 16.0073C17.4386 16.0029 17.4428 15.9981 17.4469 15.9933C17.449 15.9909 17.4512 15.9887 17.4532 15.9862C17.4568 15.9818 17.4601 15.9771 17.4634 15.9725C17.4657 15.9694 17.4681 15.9663 17.4703 15.963C17.4728 15.9591 17.4752 15.9551 17.4776 15.951C17.4801 15.9468 17.4827 15.9426 17.485 15.9382C17.4868 15.935 17.4882 15.9317 17.4898 15.9284C17.4924 15.923 17.495 15.9178 17.4973 15.9122C17.4984 15.9095 17.4993 15.9068 17.5003 15.904C17.5026 15.8979 17.5049 15.8918 17.5068 15.8854C17.5077 15.8826 17.5082 15.8797 17.509 15.8768C17.5107 15.8706 17.5124 15.8645 17.5136 15.8581C17.5146 15.853 17.5152 15.8479 17.516 15.8428C17.5166 15.8386 17.5174 15.8345 17.5178 15.8302C17.5188 15.8202 17.5193 15.8101 17.5193 15.8V10.5132L19.7658 9.29555C19.8466 9.2518 19.9029 9.17133 19.9162 9.0807C19.9294 8.98969 19.899 8.89672 19.8345 8.83148L17.6394 6.61871ZM12.4721 0.655117L19.1431 4.27078L17.1729 6.25703L10.4852 2.64203L12.4721 0.655117ZM2.91206 10.0805L0.857065 8.96668L2.8273 6.98043L9.515 10.5954L7.52804 12.5823L2.91456 10.0818L2.91206 10.0805ZM9.70714 19.2157L3.06667 15.6262V10.8307L7.44105 13.2017C7.485 13.2255 7.53296 13.2371 7.58054 13.2371C7.65644 13.2371 7.73144 13.2076 7.78781 13.1513L9.70714 11.232V19.2157ZM10.0001 10.1916L3.39046 6.61879L10.0003 3.04594L16.6099 6.61875L10.0001 10.1916ZM17.0893 10.0799L17.0846 10.0825L15.625 10.8736C15.5559 10.9107 15.5059 10.9728 15.4836 11.0478C15.4613 11.1229 15.4695 11.2021 15.5066 11.2709C15.5582 11.3654 15.657 11.424 15.7644 11.424C15.8129 11.424 15.8613 11.4119 15.9039 11.3889L16.9335 10.8308V15.6263L10.2931 19.2157V11.2318L12.2126 13.1513C12.2681 13.2068 12.3415 13.2372 12.4196 13.2372C12.468 13.2372 12.5161 13.2247 12.5591 13.2017L14.8739 11.947C14.9426 11.9099 14.9926 11.8478 15.0149 11.7728C15.0371 11.6978 15.0289 11.6189 14.9918 11.5502C14.9403 11.4552 14.8414 11.3966 14.7336 11.3966C14.6856 11.3966 14.6371 11.4088 14.5946 11.4322L12.4723 12.5821L10.4853 10.5955L17.173 6.98027L19.1433 8.9666L17.0893 10.0799Z" fill="white"/>
</svg>
