<svg width="40" height="40" viewBox="0 0 40 40" fill="none" xmlns="http://www.w3.org/2000/svg">
<g clip-path="url(#clip0)">
<path d="M0.585938 29.2056C0.909424 29.2056 1.17188 28.9435 1.17188 28.6197V11.554H35.7913V17.9947C35.7913 18.3185 36.0538 18.5806 36.3773 18.5806C36.701 18.5806 36.9632 18.3185 36.9632 17.9947V6.41479C36.9632 4.45038 35.365 2.85217 33.4009 2.85217H31.8643V2.12646C31.8643 1.34155 31.2259 0.703125 30.441 0.703125H29.3524C28.5678 0.703125 27.9294 1.34155 27.9294 2.12646V2.85217H24.0433V2.12646C24.0433 1.34155 23.4048 0.703125 22.6199 0.703125H21.5314C20.7468 0.703125 20.1083 1.34155 20.1083 2.12646V2.85217H16.2219V2.12646C16.2219 1.34155 15.5835 0.703125 14.7986 0.703125H13.7103C12.9254 0.703125 12.287 1.34155 12.287 2.12646V2.85217H8.40088V2.12646C8.40088 1.34155 7.76245 0.703125 6.97754 0.703125H5.88928C5.10437 0.703125 4.46594 1.34155 4.46594 2.12646V2.85217H3.56262C1.59821 2.85217 0 4.45038 0 6.41479V28.6197C0 28.9435 0.262451 29.2056 0.585938 29.2056ZM29.1013 2.12646C29.1013 1.98792 29.2142 1.875 29.3527 1.875H30.4413C30.5798 1.875 30.6924 1.98792 30.6924 2.12646V4.97314C30.6924 5.11169 30.5798 5.22461 30.4413 5.22461H29.3527C29.2142 5.22461 29.1013 5.112 29.1013 4.97314V2.12646ZM21.2802 2.12646C21.2802 1.98792 21.3928 1.875 21.5314 1.875H22.6199C22.7585 1.875 22.8714 1.98792 22.8714 2.12646V4.97314C22.8714 5.11169 22.7585 5.22461 22.6199 5.22461H21.5314C21.3928 5.22461 21.2802 5.112 21.2802 4.97314V2.12646ZM13.4589 2.12646C13.4589 1.98792 13.5718 1.875 13.7103 1.875H14.7989C14.9374 1.875 15.0504 1.98792 15.0504 2.12646V4.97314C15.0504 5.11169 14.9374 5.22461 14.7989 5.22461H13.7103C13.5718 5.22461 13.4589 5.112 13.4589 4.97314V2.12646ZM5.63782 2.12646C5.63782 1.98792 5.75073 1.875 5.88928 1.875H6.97784C7.11639 1.875 7.229 1.98792 7.229 2.12646V4.97314C7.229 5.11169 7.11639 5.22461 6.97784 5.22461H5.88928C5.75073 5.22461 5.63782 5.112 5.63782 4.97314V2.12646ZM3.56262 4.02405H4.46594V4.97314C4.46594 5.75806 5.10437 6.39648 5.88928 6.39648H6.97784C7.76245 6.39648 8.40088 5.75806 8.40088 4.97314V4.02405H12.2873V4.97314C12.2873 5.75806 12.9257 6.39648 13.7103 6.39648H14.7989C15.5838 6.39648 16.2222 5.75806 16.2222 4.97314V4.02405H20.1083V4.97314C20.1083 5.75806 20.7468 6.39648 21.5317 6.39648H22.6202C23.4048 6.39648 24.0433 5.75806 24.0433 4.97314V4.02405H27.9294V4.97314C27.9294 5.75806 28.5678 6.39648 29.3527 6.39648H30.4413C31.2259 6.39648 31.8643 5.75806 31.8643 4.97314V4.02405H33.4009C34.7192 4.02405 35.7916 5.09644 35.7916 6.41479V10.3821H1.17188V6.41479C1.17188 5.09644 2.24426 4.02405 3.56262 4.02405Z" fill="white"/>
<path d="M6.63361 34.6549H1.52435C1.32996 34.6549 1.17188 34.4968 1.17188 34.3024V31.29C1.17188 30.9662 0.909424 30.7041 0.585938 30.7041C0.262451 30.7041 0 30.9662 0 31.29V34.3024C0 35.1429 0.683899 35.8268 1.52435 35.8268H6.63361C6.95709 35.8268 7.21954 35.5643 7.21954 35.2408C7.21954 34.9171 6.95709 34.6549 6.63361 34.6549Z" fill="white"/>
<path d="M6.61414 13.2627H4.57739C4.25391 13.2627 3.99146 13.5251 3.99146 13.8486C3.99146 14.1724 4.25391 14.4346 4.57739 14.4346H6.61414C6.93762 14.4346 7.20007 14.1724 7.20007 13.8486C7.20007 13.5251 6.93762 13.2627 6.61414 13.2627Z" fill="white"/>
<path d="M10.8364 14.4346H12.8732C13.1967 14.4346 13.4591 14.1724 13.4591 13.8486C13.4591 13.5251 13.1967 13.2627 12.8732 13.2627H10.8364C10.5129 13.2627 10.2505 13.5251 10.2505 13.8486C10.2505 14.1724 10.5129 14.4346 10.8364 14.4346Z" fill="white"/>
<path d="M17.0957 14.4346H19.1321C19.4556 14.4346 19.7181 14.1724 19.7181 13.8486C19.7181 13.5251 19.4556 13.2627 19.1321 13.2627H17.0957C16.7719 13.2627 16.5098 13.5251 16.5098 13.8486C16.5098 14.1724 16.7719 14.4346 17.0957 14.4346Z" fill="white"/>
<path d="M23.3545 14.4346H25.3912C25.7147 14.4346 25.9772 14.1724 25.9772 13.8486C25.9772 13.5251 25.7147 13.2627 25.3912 13.2627H23.3545C23.031 13.2627 22.7686 13.5251 22.7686 13.8486C22.7686 14.1724 23.031 14.4346 23.3545 14.4346Z" fill="white"/>
<path d="M31.6502 13.2627H29.6138C29.29 13.2627 29.0278 13.5251 29.0278 13.8486C29.0278 14.1724 29.29 14.4346 29.6138 14.4346H31.6502C31.9737 14.4346 32.2361 14.1724 32.2361 13.8486C32.2361 13.5251 31.9737 13.2627 31.6502 13.2627Z" fill="white"/>
<path d="M6.61414 16.2091H4.57739C4.25391 16.2091 3.99146 16.4713 3.99146 16.795C3.99146 17.1188 4.25391 17.381 4.57739 17.381H6.61414C6.93762 17.381 7.20007 17.1188 7.20007 16.795C7.20007 16.4713 6.93762 16.2091 6.61414 16.2091Z" fill="white"/>
<path d="M10.8364 17.381H12.8732C13.1967 17.381 13.4591 17.1188 13.4591 16.795C13.4591 16.4713 13.1967 16.2091 12.8732 16.2091H10.8364C10.5129 16.2091 10.2505 16.4713 10.2505 16.795C10.2505 17.1188 10.5129 17.381 10.8364 17.381Z" fill="white"/>
<path d="M17.0957 17.381H19.1321C19.4556 17.381 19.7181 17.1188 19.7181 16.795C19.7181 16.4713 19.4556 16.2091 19.1321 16.2091H17.0957C16.7719 16.2091 16.5098 16.4713 16.5098 16.795C16.5098 17.1188 16.7719 17.381 17.0957 17.381Z" fill="white"/>
<path d="M23.3545 17.381H25.3912C25.7147 17.381 25.9772 17.1188 25.9772 16.795C25.9772 16.4713 25.7147 16.2091 25.3912 16.2091H23.3545C23.031 16.2091 22.7686 16.4713 22.7686 16.795C22.7686 17.1188 23.031 17.381 23.3545 17.381Z" fill="white"/>
<path d="M31.6502 16.2091H29.6138C29.29 16.2091 29.0278 16.4713 29.0278 16.795C29.0278 17.1188 29.29 17.381 29.6138 17.381H31.6502C31.9737 17.381 32.2361 17.1188 32.2361 16.795C32.2361 16.4713 31.9737 16.2091 31.6502 16.2091Z" fill="white"/>
<path d="M10.8508 28.884L13.8635 31.8967C14.2993 32.3325 14.8785 32.5723 15.495 32.5723C16.1114 32.5723 16.691 32.3325 17.1264 31.8967L25.3769 23.6462C26.2765 22.7466 26.2765 21.2827 25.3769 20.383C24.4772 19.4833 23.0133 19.4833 22.1136 20.383L15.495 27.0016L14.1137 25.6207C13.2144 24.7211 11.7505 24.7211 10.8505 25.6207C9.95115 26.5204 9.95115 27.9843 10.8508 28.884ZM11.6794 26.4493C11.9006 26.228 12.1914 26.1172 12.4823 26.1172C12.7731 26.1172 13.0639 26.228 13.2852 26.4493L15.0805 28.2446C15.3094 28.4735 15.6802 28.4735 15.9091 28.2446L22.9422 21.2119C23.3853 20.769 24.1055 20.769 24.548 21.2115C24.9908 21.6544 24.9908 22.3749 24.548 22.8177L16.2979 31.0678C16.0834 31.2823 15.7983 31.4005 15.495 31.4005C15.1916 31.4005 14.9066 31.2823 14.6921 31.0678L11.6794 28.0551C11.2365 27.6123 11.2365 26.8921 11.6794 26.4493Z" fill="white"/>
<path d="M36.9631 25.3406V20.665C36.9631 20.3412 36.7009 20.0791 36.3771 20.0791C36.0536 20.0791 35.7912 20.3412 35.7912 20.665V24.5933C34.7228 24.0394 33.5103 23.726 32.2261 23.726C27.9396 23.726 24.4524 27.2132 24.4524 31.4997C24.4524 32.6224 24.692 33.6899 25.1219 34.6549H9.30347C8.97998 34.6549 8.71753 34.9171 8.71753 35.2408C8.71753 35.5643 8.97998 35.8268 9.30347 35.8268H25.7711C27.1678 37.9041 29.54 39.2734 32.2261 39.2734C36.5126 39.2734 39.9999 35.7862 39.9999 31.4997C39.9999 28.9948 38.8085 26.7631 36.9631 25.3406ZM32.2261 38.1016C28.5857 38.1016 25.6243 35.1401 25.6243 31.4997C25.6243 27.8593 28.586 24.8978 32.2261 24.8978C35.8663 24.8978 38.828 27.8593 38.828 31.4997C38.828 35.1401 35.8663 38.1016 32.2261 38.1016Z" fill="white"/>
<path d="M32.2263 25.7444C29.0527 25.7444 26.4709 28.3265 26.4709 31.4997C26.4709 34.6732 29.0527 37.255 32.2263 37.255C35.3998 37.255 37.9813 34.6732 37.9813 31.4997C37.9813 28.3265 35.3995 25.7444 32.2263 25.7444ZM32.7509 36.052C32.7896 35.9736 32.8122 35.8857 32.8122 35.7923V35.0785C32.8122 34.755 32.5497 34.4926 32.2263 34.4926C31.9028 34.4926 31.6403 34.755 31.6403 35.0785V35.7923C31.6403 35.8857 31.6626 35.9736 31.7017 36.052C29.5929 35.8106 27.9153 34.1331 27.674 32.0243C27.7521 32.0634 27.8403 32.0856 27.9337 32.0856H28.6472C28.9709 32.0856 29.2331 31.8235 29.2331 31.4997C29.2331 31.1759 28.9709 30.9138 28.6472 30.9138H27.9337C27.8403 30.9138 27.7521 30.9363 27.674 30.9751C27.9153 28.8663 29.5929 27.1888 31.7017 26.9474C31.6626 27.0258 31.6403 27.1137 31.6403 27.2071V27.9209C31.6403 28.2447 31.9028 28.5068 32.2263 28.5068C32.5497 28.5068 32.8122 28.2447 32.8122 27.9209V27.2071C32.8122 27.1137 32.7896 27.0258 32.7509 26.9474C34.8596 27.1888 36.5372 28.8663 36.7786 30.9751C36.7001 30.9363 36.6122 30.9138 36.5189 30.9138H35.8051C35.4816 30.9138 35.2191 31.1759 35.2191 31.4997C35.2191 31.8235 35.4816 32.0856 35.8051 32.0856H36.5189C36.6122 32.0856 36.7001 32.0634 36.7786 32.0243C36.5369 34.1331 34.8596 35.8106 32.7509 36.052Z" fill="white"/>
<path d="M33.5178 30.9136H32.8123V30.3127C32.8123 29.9893 32.5498 29.7268 32.2263 29.7268C31.9025 29.7268 31.6404 29.9893 31.6404 30.3127V31.4996C31.6404 31.8234 31.9025 32.0855 32.2263 32.0855H33.5178C33.8413 32.0855 34.1038 31.8234 34.1038 31.4996C34.1038 31.1758 33.8413 30.9136 33.5178 30.9136Z" fill="white"/>
</g>
<defs>
<clipPath id="clip0">
<rect width="40" height="40" fill="white"/>
</clipPath>
</defs>
</svg>
