<svg width="16" height="16" viewBox="0 0 16 16" fill="none" xmlns="http://www.w3.org/2000/svg">
<g clip-path="url(#clip0)">
<path d="M10.6367 9.8457C10.4749 9.8457 10.3438 9.97687 10.3438 10.1387V12.1602C10.3438 12.9679 9.68662 13.625 8.87891 13.625H5.71578C5.55403 13.625 5.42293 13.756 5.42281 13.9178L5.4224 14.5002L4.72314 13.801C4.67788 13.6971 4.57429 13.625 4.45446 13.625H2.55078C1.74307 13.625 1.08594 12.9679 1.08594 12.1602V7.64844C1.08594 6.84072 1.74307 6.18359 2.55078 6.18359H5.50977C5.67154 6.18359 5.80273 6.05243 5.80273 5.89062C5.80273 5.72882 5.67154 5.59766 5.50977 5.59766H2.55078C1.41998 5.59766 0.5 6.51764 0.5 7.64844V12.1602C0.5 13.291 1.41998 14.2109 2.55078 14.2109H4.30443L5.50769 15.4142C5.56373 15.4702 5.63864 15.5 5.7149 15.5C5.75261 15.5 5.79066 15.4927 5.82685 15.4777C5.93633 15.4324 6.00772 15.3257 6.00781 15.2072L6.00852 14.2109H8.87891C10.0097 14.2109 10.9297 13.291 10.9297 12.1602V10.1387C10.9297 9.97687 10.7985 9.8457 10.6367 9.8457Z" fill="white"/>
<path d="M11.2418 0.5H10.5004C8.1524 0.5 6.24219 2.41021 6.24219 4.75818C6.24219 7.10615 8.1524 9.01634 10.5003 9.01634H11.2418C11.6083 9.01634 11.971 8.96979 12.3226 8.87779L13.4179 9.9725C13.4739 10.0285 13.5488 10.0583 13.6251 10.0583C13.6628 10.0583 13.7009 10.051 13.7371 10.0359C13.8466 9.99058 13.918 9.88376 13.918 9.76528V8.07028C14.3817 7.69473 14.7669 7.22032 15.0373 6.69034C15.3443 6.08841 15.5 5.43834 15.5 4.75818C15.5 2.41021 13.5898 0.5 11.2418 0.5ZM13.4487 7.69341C13.3753 7.74875 13.332 7.83541 13.332 7.92743V9.05829L12.6151 8.34175C12.5593 8.28603 12.4845 8.256 12.408 8.256C12.3793 8.256 12.3503 8.26024 12.322 8.26895C11.9732 8.37611 11.6098 8.43043 11.2418 8.43043H10.5004C8.47546 8.43043 6.82812 6.78307 6.82812 4.75818C6.82812 2.7333 8.47549 1.08594 10.5004 1.08594H11.2418C13.2667 1.08594 14.9141 2.7333 14.9141 4.75818C14.9141 5.92218 14.38 6.99204 13.4487 7.69341Z" fill="white"/>
<path d="M12.1906 3.70555C12.1483 3.09222 11.6539 2.59781 11.0405 2.55553C10.6928 2.53166 10.361 2.64893 10.107 2.88603C9.85653 3.11985 9.71289 3.45038 9.71289 3.79289C9.71289 3.95469 9.84408 4.08585 10.0059 4.08585C10.1676 4.08585 10.2988 3.95469 10.2988 3.79289C10.2988 3.60952 10.3727 3.43957 10.5068 3.31438C10.6408 3.18931 10.816 3.12741 11.0003 3.14012C11.3233 3.16239 11.5838 3.42281 11.606 3.74586C11.6285 4.07214 11.4145 4.36048 11.0971 4.4315C10.8399 4.48904 10.6603 4.71251 10.6603 4.97493V5.67878C10.6603 5.84059 10.7915 5.97175 10.9533 5.97175C11.1151 5.97175 11.2462 5.84059 11.2462 5.67878V4.99834C11.8365 4.85572 12.2326 4.31554 12.1906 3.70555Z" fill="white"/>
<path d="M11.1603 6.63052C11.1058 6.57603 11.0302 6.54468 10.9531 6.54468C10.8761 6.54468 10.8005 6.57603 10.746 6.63052C10.6915 6.68501 10.6602 6.7606 10.6602 6.83765C10.6602 6.91499 10.6915 6.99058 10.746 7.04507C10.8005 7.09956 10.8761 7.13062 10.9531 7.13062C11.0302 7.13062 11.1058 7.09956 11.1603 7.04507C11.2147 6.99028 11.2461 6.91499 11.2461 6.83765C11.2461 6.7606 11.2147 6.68501 11.1603 6.63052Z" fill="white"/>
<path d="M8.55664 9.58203H2.375C2.21322 9.58203 2.08203 9.71319 2.08203 9.875C2.08203 10.0368 2.21322 10.168 2.375 10.168H8.55664C8.71845 10.168 8.84961 10.0368 8.84961 9.875C8.84961 9.71319 8.71842 9.58203 8.55664 9.58203Z" fill="white"/>
<path d="M8.76374 11.3085C8.70928 11.254 8.63369 11.2227 8.55664 11.2227C8.47959 11.2227 8.404 11.254 8.34951 11.3085C8.29499 11.363 8.26367 11.4386 8.26367 11.5156C8.26367 11.5927 8.29502 11.6683 8.34951 11.7228C8.404 11.7772 8.47959 11.8086 8.55664 11.8086C8.63369 11.8086 8.70928 11.7772 8.76374 11.7228C8.81826 11.6683 8.84961 11.593 8.84961 11.5156C8.84961 11.4386 8.81823 11.363 8.76374 11.3085Z" fill="white"/>
<path d="M7.40431 11.2227H2.375C2.21322 11.2227 2.08203 11.3538 2.08203 11.5156C2.08203 11.6774 2.21322 11.8086 2.375 11.8086H7.40431C7.56611 11.8086 7.69728 11.6774 7.69728 11.5156C7.69728 11.3538 7.56608 11.2227 7.40431 11.2227Z" fill="white"/>
<path d="M6.65234 7.94141H2.375C2.21322 7.94141 2.08203 8.07257 2.08203 8.23438C2.08203 8.39618 2.21322 8.52734 2.375 8.52734H6.65234C6.81415 8.52734 6.94531 8.39618 6.94531 8.23438C6.94531 8.07257 6.81412 7.94141 6.65234 7.94141Z" fill="white"/>
</g>
<defs>
<clipPath id="clip0">
<rect x="0.5" y="0.5" width="15" height="15" fill="white"/>
</clipPath>
</defs>
</svg>
