<svg width="16" height="16" viewBox="0 0 16 16" fill="none" xmlns="http://www.w3.org/2000/svg">
<g clip-path="url(#clip0)">
<path d="M13.7295 5.46403L15.3758 3.80439C15.4245 3.75523 15.4472 3.68604 15.4372 3.6176C15.427 3.54913 15.3853 3.48942 15.3245 3.45646L9.91932 0.526836C9.8338 0.480518 9.72801 0.49584 9.65925 0.564629L7.99991 2.22397L6.34068 0.564746C6.29937 0.523145 6.244 0.5 6.1857 0.5C6.14908 0.5 6.11304 0.509346 6.08081 0.526953L4.34471 1.46762C4.29315 1.49574 4.25565 1.54203 4.23895 1.59828C4.22225 1.65453 4.2284 1.714 4.25623 1.76557C4.29491 1.83646 4.36903 1.88073 4.44959 1.88073C4.48592 1.88073 4.52225 1.87136 4.55418 1.85407L6.14585 0.991309L7.63616 2.48161L2.62035 5.19269L1.14265 3.70294L3.78136 2.27272C3.83322 2.24489 3.87072 2.1986 3.88742 2.14235C3.90411 2.0861 3.89796 2.02663 3.86984 1.97507C3.83146 1.90417 3.75734 1.85993 3.67677 1.85993C3.64044 1.85993 3.60441 1.86928 3.57218 1.88656L0.675657 3.45658C0.615013 3.48907 0.572825 3.54945 0.562864 3.61771C0.552904 3.68565 0.575784 3.75538 0.624388 3.80434L2.27049 5.46409L0.624271 7.1237C0.57555 7.17286 0.552816 7.24206 0.562894 7.3105C0.573001 7.37896 0.614749 7.43867 0.67557 7.47163L2.36052 8.38487V12.35C2.36049 12.3576 2.36087 12.3652 2.36163 12.3726C2.36196 12.3758 2.36257 12.3789 2.36301 12.3821C2.36357 12.3859 2.36401 12.3898 2.36477 12.3936C2.36571 12.3983 2.367 12.403 2.36823 12.4076C2.36881 12.4098 2.36925 12.4119 2.3699 12.4141C2.37133 12.4188 2.37306 12.4234 2.37479 12.428C2.37555 12.4301 2.37619 12.4321 2.37704 12.4342C2.37874 12.4383 2.38071 12.4423 2.38264 12.4463C2.38384 12.4488 2.38493 12.4513 2.38621 12.4537C2.38797 12.457 2.38993 12.4601 2.39181 12.4633C2.39363 12.4663 2.39535 12.4693 2.39729 12.4723C2.3989 12.4747 2.40072 12.477 2.40244 12.4794C2.40493 12.4828 2.4074 12.4863 2.41009 12.4897C2.41159 12.4915 2.41326 12.4932 2.41481 12.495C2.41791 12.4986 2.42102 12.5021 2.42436 12.5055C2.42609 12.5072 2.42799 12.5088 2.42978 12.5105C2.43312 12.5137 2.4364 12.5168 2.43994 12.5198C2.44337 12.5226 2.44701 12.5252 2.45058 12.5278C2.45269 12.5294 2.45465 12.531 2.45682 12.5325C2.46312 12.5367 2.46965 12.5407 2.47639 12.5443L7.89441 15.473C7.9022 15.4773 7.91035 15.481 7.91869 15.4843C7.92051 15.485 7.92236 15.4857 7.9242 15.4863C7.9303 15.4886 7.93648 15.4906 7.94284 15.4922C7.94512 15.4929 7.94738 15.4935 7.94966 15.494C7.95581 15.4954 7.96205 15.4966 7.96838 15.4975C7.97055 15.4978 7.97266 15.4982 7.97483 15.4984C7.98309 15.4994 7.99147 15.5 7.99999 15.5C8.00852 15.5 8.0169 15.4994 8.02516 15.4984C8.02733 15.4982 8.02947 15.4978 8.03163 15.4975C8.03796 15.4966 8.0442 15.4954 8.05033 15.494C8.05261 15.4935 8.0549 15.4929 8.05715 15.4922C8.06348 15.4905 8.06969 15.4886 8.07576 15.4863C8.0776 15.4857 8.07945 15.485 8.08126 15.4843C8.08958 15.481 8.09773 15.4773 8.10552 15.473L13.5235 12.5443C13.5303 12.5407 13.5368 12.5367 13.5431 12.5325C13.5453 12.531 13.5473 12.5293 13.5493 12.5278C13.553 12.5252 13.5566 12.5226 13.56 12.5198C13.5635 12.5168 13.5668 12.5137 13.5702 12.5105C13.5719 12.5088 13.5738 12.5073 13.5756 12.5055C13.5789 12.5021 13.582 12.4986 13.5851 12.495C13.5867 12.4932 13.5883 12.4915 13.5898 12.4897C13.5925 12.4863 13.595 12.4829 13.5975 12.4794C13.5992 12.477 13.601 12.4747 13.6026 12.4723C13.6046 12.4693 13.6063 12.4663 13.6081 12.4633C13.61 12.4601 13.612 12.457 13.6137 12.4537C13.615 12.4513 13.6161 12.4488 13.6173 12.4463C13.6192 12.4423 13.6212 12.4383 13.6229 12.4342C13.6237 12.4321 13.6244 12.4301 13.6251 12.428C13.6269 12.4234 13.6286 12.4188 13.63 12.4141C13.6307 12.412 13.6311 12.4098 13.6317 12.4076C13.6329 12.403 13.6342 12.3983 13.6352 12.3936C13.6359 12.3898 13.6364 12.3859 13.6369 12.3821C13.6374 12.3789 13.638 12.3758 13.6383 12.3726C13.6391 12.3651 13.6394 12.3576 13.6394 12.35V8.38487L15.3243 7.47166C15.3849 7.43885 15.4271 7.3785 15.4371 7.31053C15.447 7.24227 15.4242 7.17254 15.3758 7.12361L13.7295 5.46403ZM9.85405 0.991338L14.8573 3.70309L13.3796 5.19277L8.36386 2.48152L9.85405 0.991338ZM2.68399 8.06038L1.14274 7.22501L2.62041 5.73532L7.63619 8.44657L6.14597 9.93676L2.68586 8.06138C2.68525 8.06103 2.68463 8.0607 2.68399 8.06038ZM7.7803 14.9117L2.79994 12.2196V8.62306L6.08073 10.4013C6.11369 10.4191 6.14966 10.4278 6.18535 10.4278C6.24227 10.4278 6.29852 10.4057 6.3408 10.3635L7.7803 8.92396V14.9117ZM8.00002 8.1437L3.04279 5.46409L8.00014 2.78445L12.9574 5.46406L8.00002 8.1437ZM13.3169 8.05994C13.3157 8.06056 13.3145 8.0612 13.3134 8.06185L12.2187 8.6552C12.1668 8.68303 12.1293 8.72961 12.1126 8.78586C12.0959 8.84214 12.1021 8.90158 12.1299 8.95317C12.1686 9.02407 12.2427 9.06802 12.3233 9.06802C12.3596 9.06802 12.3959 9.05891 12.4279 9.04165L13.2001 8.62309V12.2197L8.21975 14.9118V8.92385L9.65937 10.3635C9.701 10.4051 9.75605 10.4279 9.81464 10.4279C9.85097 10.4279 9.88701 10.4185 9.91923 10.4013L11.6553 9.46027C11.7069 9.43244 11.7444 9.38586 11.7611 9.32961C11.7778 9.27336 11.7716 9.21418 11.7438 9.16262C11.7051 9.09143 11.631 9.04748 11.5502 9.04748C11.5141 9.04748 11.4778 9.05656 11.4459 9.07414L9.85419 9.93658L8.36389 8.4466L13.3797 5.73521L14.8574 7.22495L13.3169 8.05994Z" fill="white"/>
</g>
<defs>
<clipPath id="clip0">
<rect x="0.5" y="0.5" width="15" height="15" fill="white"/>
</clipPath>
</defs>
</svg>
