<svg width="40" height="40" viewBox="0 0 40 40" fill="none" xmlns="http://www.w3.org/2000/svg">
<g clip-path="url(#clip0)">
<path d="M36.4371 6.90712C30.9336 5.39915 25.3977 3.05111 20.428 0.116894C20.164 -0.0389648 19.8364 -0.0389648 19.5725 0.116894C14.4594 3.1354 9.22266 5.35642 3.56291 6.90712C3.19728 7.00719 2.94385 7.33954 2.94385 7.71868V16.316C2.94385 25.1693 7.02814 31.0296 10.4545 34.3867C14.1433 38.0012 18.4401 40 20.0002 40C21.5601 40 25.857 38.0012 29.5457 34.3867C32.9721 31.0297 37.0561 25.1694 37.0561 16.316V7.7186C37.0561 7.33954 36.8027 7.00719 36.4371 6.90712ZM35.3733 16.3159C35.3733 24.5849 31.5639 30.0532 28.3679 33.1846C24.7405 36.7389 20.8622 38.3171 20.0002 38.3171C19.1383 38.3171 15.2597 36.7389 11.6322 33.1846C8.43634 30.0532 4.62673 24.5849 4.62673 16.3159V8.35735C10.0391 6.82063 15.0795 4.67603 20.0004 1.81642C24.7983 4.60017 30.0903 6.85141 35.3733 8.35703V16.3159Z" fill="white"/>
<path d="M12.5421 8.26325C12.3718 7.83083 11.8833 7.61841 11.4508 7.7888C9.94766 8.38106 8.40485 8.92622 6.86524 9.40918C6.51438 9.51934 6.27563 9.84434 6.27563 10.212V13.4613C6.27563 13.926 6.65243 14.3027 7.11704 14.3027C7.58165 14.3027 7.95845 13.926 7.95845 13.4613V10.8269C9.33962 10.38 10.7193 9.88575 12.0677 9.35442C12.5001 9.18418 12.7125 8.69567 12.5421 8.26325Z" fill="white"/>
<path d="M14.1402 8.42291C14.2531 8.42291 14.3677 8.40018 14.4776 8.35221L14.4931 8.34549C14.9188 8.15893 15.1105 7.66339 14.9239 7.23784C14.7372 6.81214 14.2389 6.61956 13.8136 6.80597L13.8 6.81183C13.3741 6.99784 13.1818 7.493 13.3678 7.91878C13.5058 8.23487 13.8156 8.42291 14.1402 8.42291Z" fill="white"/>
<path d="M30.0252 27.1315C29.6364 26.8773 29.115 26.9866 28.8605 27.3756C28.1671 28.4369 27.3537 29.4531 26.4425 30.3959C25.6931 31.171 24.8811 31.8935 24.0289 32.5431C23.6595 32.8248 23.5884 33.3528 23.87 33.7224C24.0357 33.9395 24.2863 34.0537 24.5397 34.0537C24.7177 34.0537 24.897 33.9976 25.0493 33.8813C25.9685 33.1805 26.8443 32.4013 27.6522 31.5655C28.6375 30.5465 29.5179 29.4465 30.2693 28.2961C30.5236 27.907 30.4142 27.3856 30.0252 27.1315Z" fill="white"/>
<path d="M22.0748 33.8627L22.0265 33.8911C21.6244 34.124 21.487 34.6387 21.7198 35.0408C21.8758 35.3104 22.1582 35.4608 22.4487 35.4608C22.5917 35.4608 22.7369 35.4244 22.8694 35.3474L22.9251 35.3147C23.3261 35.0798 23.4608 34.5644 23.226 34.1634C22.991 33.7625 22.4755 33.6281 22.0748 33.8627Z" fill="white"/>
<path d="M14.2646 18.2826C13.7479 17.7658 13.0608 17.4815 12.33 17.4815C11.5993 17.4815 10.9121 17.7659 10.3952 18.2826C9.32856 19.3494 9.32856 21.0854 10.3952 22.1522L15.3636 27.1204C15.8803 27.637 16.5674 27.9214 17.2983 27.9214C18.0292 27.9214 18.7163 27.637 19.2331 27.1203L29.605 16.7483C30.6716 15.6812 30.6716 13.9455 29.6048 12.879C29.0881 12.3623 28.401 12.0779 27.6701 12.0779C26.9392 12.0779 26.2521 12.3623 25.7353 12.879L17.2982 21.3161L14.2646 18.2826ZM26.9253 14.069C27.1241 13.8701 27.3888 13.7607 27.6702 13.7607C27.9517 13.7607 28.2161 13.8701 28.4151 14.069C28.8256 14.4795 28.8256 15.1478 28.4149 15.5585L18.0431 25.9304C17.8443 26.1292 17.5797 26.2386 17.2983 26.2386C17.0169 26.2386 16.7523 26.1292 16.5534 25.9304L11.5851 20.9622C11.1744 20.5515 11.1744 19.8833 11.585 19.4727C11.7839 19.2739 12.0485 19.1643 12.33 19.1643C12.6114 19.1643 12.8759 19.2737 13.0747 19.4726L16.7032 23.1011C16.8611 23.2589 17.075 23.3475 17.2982 23.3475C17.5214 23.3475 17.7353 23.259 17.8931 23.1011L26.9253 14.069Z" fill="white"/>
</g>
<defs>
<clipPath id="clip0">
<rect width="40" height="40" fill="white"/>
</clipPath>
</defs>
</svg>
