<svg width="16" height="16" viewBox="0 0 16 16" fill="none" xmlns="http://www.w3.org/2000/svg">
<g clip-path="url(#clip0)">
<path d="M0.719727 11.4521C0.841034 11.4521 0.939453 11.3538 0.939453 11.2324V4.83273H13.9217V7.24801C13.9217 7.36943 14.0202 7.46774 14.1415 7.46774C14.2629 7.46774 14.3612 7.36943 14.3612 7.24801V2.90555C14.3612 2.16889 13.7619 1.56956 13.0253 1.56956H12.4491V1.29742C12.4491 1.00308 12.2097 0.763672 11.9154 0.763672H11.5072C11.2129 0.763672 10.9735 1.00308 10.9735 1.29742V1.56956H9.51623V1.29742C9.51623 1.00308 9.27682 0.763672 8.98248 0.763672H8.57426C8.28004 0.763672 8.04063 1.00308 8.04063 1.29742V1.56956H6.58322V1.29742C6.58322 1.00308 6.34381 0.763672 6.04947 0.763672H5.64137C5.34703 0.763672 5.10762 1.00308 5.10762 1.29742V1.56956H3.65033V1.29742C3.65033 1.00308 3.41092 0.763672 3.11658 0.763672H2.70848C2.41414 0.763672 2.17473 1.00308 2.17473 1.29742V1.56956H1.83598C1.09933 1.56956 0.5 2.16889 0.5 2.90555V11.2324C0.5 11.3538 0.598419 11.4521 0.719727 11.4521ZM11.413 1.29742C11.413 1.24547 11.4553 1.20312 11.5073 1.20312H11.9155C11.9674 1.20312 12.0097 1.24547 12.0097 1.29742V2.36493C12.0097 2.41689 11.9674 2.45923 11.9155 2.45923H11.5073C11.4553 2.45923 11.413 2.417 11.413 2.36493V1.29742ZM8.48008 1.29742C8.48008 1.24547 8.52231 1.20312 8.57426 1.20312H8.98248C9.03443 1.20312 9.07677 1.24547 9.07677 1.29742V2.36493C9.07677 2.41689 9.03443 2.45923 8.98248 2.45923H8.57426C8.52231 2.45923 8.48008 2.417 8.48008 2.36493V1.29742ZM5.54707 1.29742C5.54707 1.24547 5.58942 1.20312 5.64137 1.20312H6.04958C6.10154 1.20312 6.14388 1.24547 6.14388 1.29742V2.36493C6.14388 2.41689 6.10154 2.45923 6.04958 2.45923H5.64137C5.58942 2.45923 5.54707 2.417 5.54707 2.36493V1.29742ZM2.61418 1.29742C2.61418 1.24547 2.65652 1.20312 2.70848 1.20312H3.11669C3.16865 1.20312 3.21088 1.24547 3.21088 1.29742V2.36493C3.21088 2.41689 3.16865 2.45923 3.11669 2.45923H2.70848C2.65652 2.45923 2.61418 2.417 2.61418 2.36493V1.29742ZM1.83598 2.00902H2.17473V2.36493C2.17473 2.65927 2.41414 2.89868 2.70848 2.89868H3.11669C3.41092 2.89868 3.65033 2.65927 3.65033 2.36493V2.00902H5.10773V2.36493C5.10773 2.65927 5.34715 2.89868 5.64137 2.89868H6.04958C6.34393 2.89868 6.58334 2.65927 6.58334 2.36493V2.00902H8.04063V2.36493C8.04063 2.65927 8.28004 2.89868 8.57438 2.89868H8.98259C9.27682 2.89868 9.51623 2.65927 9.51623 2.36493V2.00902H10.9735V2.36493C10.9735 2.65927 11.2129 2.89868 11.5073 2.89868H11.9155C12.2097 2.89868 12.4491 2.65927 12.4491 2.36493V2.00902H13.0253C13.5197 2.00902 13.9219 2.41116 13.9219 2.90555V4.39328H0.939453V2.90555C0.939453 2.41116 1.3416 2.00902 1.83598 2.00902Z" fill="white"/>
<path d="M2.9876 13.4955H1.07163C0.998734 13.4955 0.939453 13.4362 0.939453 13.3633V12.2336C0.939453 12.1122 0.841034 12.0139 0.719727 12.0139C0.598419 12.0139 0.5 12.1122 0.5 12.2336V13.3633C0.5 13.6785 0.756462 13.9349 1.07163 13.9349H2.9876C3.10891 13.9349 3.20733 13.8365 3.20733 13.7152C3.20733 13.5938 3.10891 13.4955 2.9876 13.4955Z" fill="white"/>
<path d="M2.98058 5.47339H2.2168C2.09549 5.47339 1.99707 5.57181 1.99707 5.69312C1.99707 5.81454 2.09549 5.91284 2.2168 5.91284H2.98058C3.10188 5.91284 3.2003 5.81454 3.2003 5.69312C3.2003 5.57181 3.10188 5.47339 2.98058 5.47339Z" fill="white"/>
<path d="M4.56348 5.91284H5.32726C5.44856 5.91284 5.54698 5.81454 5.54698 5.69312C5.54698 5.57181 5.44856 5.47339 5.32726 5.47339H4.56348C4.44217 5.47339 4.34375 5.57181 4.34375 5.69312C4.34375 5.81454 4.44217 5.91284 4.56348 5.91284Z" fill="white"/>
<path d="M6.91064 5.91284H7.67431C7.79562 5.91284 7.89404 5.81454 7.89404 5.69312C7.89404 5.57181 7.79562 5.47339 7.67431 5.47339H6.91064C6.78922 5.47339 6.69092 5.57181 6.69092 5.69312C6.69092 5.81454 6.78922 5.91284 6.91064 5.91284Z" fill="white"/>
<path d="M9.25781 5.91284H10.0216C10.1429 5.91284 10.2413 5.81454 10.2413 5.69312C10.2413 5.57181 10.1429 5.47339 10.0216 5.47339H9.25781C9.13651 5.47339 9.03809 5.57181 9.03809 5.69312C9.03809 5.81454 9.13651 5.91284 9.25781 5.91284Z" fill="white"/>
<path d="M12.3686 5.47339H11.605C11.4836 5.47339 11.3853 5.57181 11.3853 5.69312C11.3853 5.81454 11.4836 5.91284 11.605 5.91284H12.3686C12.49 5.91284 12.5884 5.81454 12.5884 5.69312C12.5884 5.57181 12.49 5.47339 12.3686 5.47339Z" fill="white"/>
<path d="M2.98058 6.57837H2.2168C2.09549 6.57837 1.99707 6.67667 1.99707 6.7981C1.99707 6.91952 2.09549 7.01782 2.2168 7.01782H2.98058C3.10188 7.01782 3.2003 6.91952 3.2003 6.7981C3.2003 6.67667 3.10188 6.57837 2.98058 6.57837Z" fill="white"/>
<path d="M4.56348 7.01782H5.32726C5.44856 7.01782 5.54698 6.91952 5.54698 6.7981C5.54698 6.67667 5.44856 6.57837 5.32726 6.57837H4.56348C4.44217 6.57837 4.34375 6.67667 4.34375 6.7981C4.34375 6.91952 4.44217 7.01782 4.56348 7.01782Z" fill="white"/>
<path d="M6.91064 7.01782H7.67431C7.79562 7.01782 7.89404 6.91952 7.89404 6.7981C7.89404 6.67667 7.79562 6.57837 7.67431 6.57837H6.91064C6.78922 6.57837 6.69092 6.67667 6.69092 6.7981C6.69092 6.91952 6.78922 7.01782 6.91064 7.01782Z" fill="white"/>
<path d="M9.25781 7.01782H10.0216C10.1429 7.01782 10.2413 6.91952 10.2413 6.7981C10.2413 6.67667 10.1429 6.57837 10.0216 6.57837H9.25781C9.13651 6.57837 9.03809 6.67667 9.03809 6.7981C9.03809 6.91952 9.13651 7.01782 9.25781 7.01782Z" fill="white"/>
<path d="M12.3686 6.57837H11.605C11.4836 6.57837 11.3853 6.67667 11.3853 6.7981C11.3853 6.91952 11.4836 7.01782 11.605 7.01782H12.3686C12.49 7.01782 12.5884 6.91952 12.5884 6.7981C12.5884 6.67667 12.49 6.57837 12.3686 6.57837Z" fill="white"/>
<path d="M4.56896 11.3315L5.69872 12.4613C5.86214 12.6247 6.07935 12.7147 6.31052 12.7147C6.54169 12.7147 6.75902 12.6247 6.92232 12.4613L10.0162 9.36737C10.3536 9.03 10.3536 8.48103 10.0162 8.14365C9.67886 7.80628 9.12989 7.80628 8.79252 8.14365L6.31052 10.6256L5.79256 10.1078C5.45531 9.77043 4.90633 9.77043 4.56885 10.1078C4.23159 10.4452 4.23159 10.9941 4.56896 11.3315ZM4.87967 10.4185C4.96264 10.3355 5.0717 10.294 5.18076 10.294C5.28982 10.294 5.39889 10.3355 5.48186 10.4185L6.15511 11.0918C6.24094 11.1776 6.37999 11.1776 6.46582 11.0918L9.10322 8.45448C9.26939 8.28842 9.53947 8.28842 9.70541 8.45436C9.87147 8.62041 9.87147 8.89061 9.70541 9.05666L6.61162 12.1505C6.53117 12.2309 6.42428 12.2752 6.31052 12.2752C6.19677 12.2752 6.08988 12.2309 6.00943 12.1505L4.87967 11.0207C4.71361 10.8546 4.71361 10.5846 4.87967 10.4185Z" fill="white"/>
<path d="M14.3611 10.0026V8.24927C14.3611 8.12785 14.2628 8.02954 14.1414 8.02954C14.0201 8.02954 13.9217 8.12785 13.9217 8.24927V9.72235C13.521 9.51464 13.0663 9.39711 12.5848 9.39711C10.9773 9.39711 9.66962 10.7048 9.66962 12.3123C9.66962 12.7333 9.75945 13.1336 9.9207 13.4955H3.98877C3.86746 13.4955 3.76904 13.5938 3.76904 13.7152C3.76904 13.8365 3.86746 13.9349 3.98877 13.9349H10.1641C10.6879 14.7139 11.5775 15.2274 12.5848 15.2274C14.1922 15.2274 15.4999 13.9197 15.4999 12.3123C15.4999 11.3729 15.0531 10.536 14.3611 10.0026ZM12.5848 14.788C11.2196 14.788 10.1091 13.6774 10.1091 12.3123C10.1091 10.9471 11.2197 9.83656 12.5848 9.83656C13.9498 9.83656 15.0605 10.9471 15.0605 12.3123C15.0605 13.6774 13.9498 14.788 12.5848 14.788Z" fill="white"/>
<path d="M12.585 10.1541C11.3949 10.1541 10.4268 11.1223 10.4268 12.3123C10.4268 13.5024 11.3949 14.4705 12.585 14.4705C13.7751 14.4705 14.7431 13.5024 14.7431 12.3123C14.7431 11.1223 13.775 10.1541 12.585 10.1541ZM12.7817 14.0194C12.7963 13.99 12.8047 13.957 12.8047 13.922V13.6543C12.8047 13.533 12.7063 13.4346 12.585 13.4346C12.4637 13.4346 12.3653 13.533 12.3653 13.6543V13.922C12.3653 13.957 12.3736 13.99 12.3883 14.0194C11.5975 13.9289 10.9684 13.2998 10.8779 12.509C10.9072 12.5237 10.9403 12.532 10.9753 12.532H11.2428C11.3643 12.532 11.4626 12.4337 11.4626 12.3123C11.4626 12.1909 11.3643 12.0926 11.2428 12.0926H10.9753C10.9403 12.0926 10.9072 12.101 10.8779 12.1156C10.9684 11.3248 11.5975 10.6957 12.3883 10.6052C12.3736 10.6346 12.3653 10.6675 12.3653 10.7026V10.9702C12.3653 11.0917 12.4637 11.19 12.585 11.19C12.7063 11.19 12.8047 11.0917 12.8047 10.9702V10.7026C12.8047 10.6675 12.7963 10.6346 12.7817 10.6052C13.5725 10.6957 14.2016 11.3248 14.2921 12.1156C14.2627 12.101 14.2297 12.0926 14.1947 12.0926H13.927C13.8057 12.0926 13.7073 12.1909 13.7073 12.3123C13.7073 12.4337 13.8057 12.532 13.927 12.532H14.1947C14.2297 12.532 14.2627 12.5237 14.2921 12.509C14.2015 13.2998 13.5725 13.9289 12.7817 14.0194Z" fill="white"/>
<path d="M13.0693 12.0925H12.8047V11.8672C12.8047 11.7459 12.7063 11.6475 12.585 11.6475C12.4635 11.6475 12.3652 11.7459 12.3652 11.8672V12.3122C12.3652 12.4337 12.4635 12.532 12.585 12.532H13.0693C13.1906 12.532 13.289 12.4337 13.289 12.3122C13.289 12.1908 13.1906 12.0925 13.0693 12.0925Z" fill="white"/>
</g>
<defs>
<clipPath id="clip0">
<rect x="0.5" y="0.5" width="15" height="15" fill="white"/>
</clipPath>
</defs>
</svg>
