<svg width="20" height="20" viewBox="0 0 20 20" fill="none" xmlns="http://www.w3.org/2000/svg">
<g clip-path="url(#clip0)">
<path d="M18.2185 3.45356C15.4668 2.69958 12.6989 1.52555 10.214 0.0584472C10.082 -0.0194824 9.9182 -0.0194824 9.78624 0.0584472C7.22969 1.5677 4.61133 2.67821 1.78145 3.45356C1.59864 3.5036 1.47192 3.66977 1.47192 3.85934V8.158C1.47192 12.5847 3.51407 15.5148 5.22727 17.1934C7.07164 19.0006 9.22007 20 10.0001 20C10.7801 20 12.9285 19.0006 14.7729 17.1934C16.486 15.5149 18.5281 12.5847 18.5281 8.158V3.8593C18.5281 3.66977 18.4013 3.5036 18.2185 3.45356ZM17.6867 8.15796C17.6867 12.2924 15.7819 15.0266 14.184 16.5923C12.3703 18.3695 10.4311 19.1585 10.0001 19.1585C9.56913 19.1585 7.62984 18.3695 5.81609 16.5923C4.21817 15.0266 2.31337 12.2924 2.31337 8.15796V4.17867C5.01953 3.41032 7.53976 2.33801 10.0002 0.908211C12.3992 2.30008 15.0451 3.42571 17.6867 4.17852V8.15796Z" fill="white"/>
<path d="M6.27118 4.13162C6.18602 3.91541 5.94176 3.8092 5.72551 3.8944C4.97395 4.19053 4.20255 4.46311 3.43274 4.70459C3.25731 4.75967 3.13794 4.92217 3.13794 5.106V6.73064C3.13794 6.96299 3.32634 7.15135 3.55864 7.15135C3.79095 7.15135 3.97934 6.96299 3.97934 6.73064V5.41346C4.66993 5.19002 5.35977 4.94287 6.03395 4.67721C6.25016 4.59209 6.35637 4.34783 6.27118 4.13162Z" fill="white"/>
<path d="M7.0701 4.21146C7.12654 4.21146 7.18385 4.20009 7.23881 4.17611L7.24654 4.17275C7.45939 4.07947 7.55525 3.83169 7.46197 3.61892C7.36861 3.40607 7.11943 3.30978 6.90682 3.40298L6.90002 3.40591C6.68706 3.49892 6.59088 3.7465 6.68389 3.95939C6.75291 4.11743 6.9078 4.21146 7.0701 4.21146Z" fill="white"/>
<path d="M15.0126 13.5656C14.8182 13.4385 14.5575 13.4932 14.4303 13.6877C14.0836 14.2183 13.6769 14.7264 13.2212 15.1978C12.8465 15.5854 12.4405 15.9466 12.0145 16.2714C11.8297 16.4123 11.7942 16.6763 11.935 16.8611C12.0179 16.9696 12.1431 17.0267 12.2699 17.0267C12.3588 17.0267 12.4485 16.9987 12.5247 16.9405C12.9842 16.5901 13.4221 16.2005 13.8261 15.7826C14.3187 15.2731 14.759 14.7231 15.1347 14.1479C15.2618 13.9534 15.2071 13.6927 15.0126 13.5656Z" fill="white"/>
<path d="M11.0374 16.9312L11.0132 16.9454C10.8122 17.0619 10.7435 17.3192 10.8599 17.5203C10.9379 17.6551 11.0791 17.7303 11.2244 17.7303C11.2959 17.7303 11.3684 17.7121 11.4347 17.6736L11.4626 17.6572C11.6631 17.5398 11.7304 17.2821 11.613 17.0816C11.4955 16.8812 11.2378 16.8139 11.0374 16.9312Z" fill="white"/>
<path d="M7.13228 9.1414C6.87396 8.88304 6.53041 8.74085 6.16502 8.74085C5.79963 8.74085 5.45603 8.88308 5.1976 9.1414C4.66428 9.67484 4.66428 10.5428 5.1976 11.0762L7.68181 13.5603C7.94017 13.8186 8.28372 13.9608 8.64915 13.9608C9.01458 13.9608 9.35814 13.8186 9.61653 13.5603L14.8025 8.37425C15.3358 7.8407 15.3358 6.97285 14.8024 6.43961C14.5441 6.18125 14.2005 6.03906 13.835 6.03906C13.4696 6.03906 13.1261 6.18129 12.8677 6.43961L8.64911 10.6582L7.13228 9.1414ZM13.4627 7.03461C13.5621 6.93519 13.6944 6.88047 13.8351 6.88047C13.9759 6.88047 14.108 6.93519 14.2075 7.03461C14.4128 7.23988 14.4128 7.57402 14.2075 7.77937L9.02157 12.9653C8.92216 13.0647 8.78986 13.1194 8.64915 13.1194C8.50845 13.1194 8.37615 13.0647 8.27669 12.9653L5.79256 10.4812C5.58721 10.2759 5.58721 9.94175 5.79248 9.73648C5.89193 9.63706 6.02424 9.58226 6.16498 9.58226C6.30572 9.58226 6.43795 9.63699 6.53736 9.7364L8.35161 11.5507C8.43056 11.6296 8.53751 11.6739 8.64911 11.6739C8.76072 11.6739 8.86767 11.6296 8.94654 11.5507L13.4627 7.03461Z" fill="white"/>
</g>
<defs>
<clipPath id="clip0">
<rect width="20" height="20" fill="white"/>
</clipPath>
</defs>
</svg>
