<svg width="14" height="16" viewBox="0 0 14 16" fill="none" xmlns="http://www.w3.org/2000/svg">
<path d="M13.164 3.09017C11.1001 2.52468 9.0242 1.64417 7.16054 0.543835C7.06155 0.485388 6.93871 0.485388 6.83974 0.543835C4.92233 1.67578 2.95856 2.50866 0.836152 3.09017C0.699043 3.1277 0.604004 3.25233 0.604004 3.3945V6.6185C0.604004 9.93851 2.13561 12.1361 3.42051 13.395C4.80379 14.7504 6.41511 15.5 7.00014 15.5C7.58511 15.5 9.19644 14.7504 10.5797 13.395C11.8646 12.1361 13.3961 9.93853 13.3961 6.6185V3.39447C13.3961 3.25233 13.3011 3.1277 13.164 3.09017ZM12.7651 6.61847C12.7651 9.71934 11.3365 11.77 10.138 12.9442C8.77776 14.2771 7.32337 14.8689 7.00014 14.8689C6.67691 14.8689 5.22244 14.2771 3.86213 12.9442C2.66369 11.7699 1.23509 9.71934 1.23509 6.61847V3.63401C3.26471 3.05774 5.15488 2.25351 7.0002 1.18116C8.79944 2.22506 10.7839 3.06928 12.7651 3.63389V6.61847Z" fill="white"/>
<path d="M4.20344 3.59866C4.13958 3.4365 3.95638 3.35684 3.7942 3.42074C3.23053 3.64284 2.65197 3.84727 2.07462 4.02838C1.94305 4.06969 1.85352 4.19157 1.85352 4.32944V5.54792C1.85352 5.72218 1.99481 5.86345 2.16904 5.86345C2.34327 5.86345 2.48457 5.72218 2.48457 5.54792V4.56003C3.00251 4.39245 3.51989 4.20709 4.02553 4.00785C4.18768 3.94401 4.26734 3.76082 4.20344 3.59866Z" fill="white"/>
<path d="M4.80257 3.65865C4.84491 3.65865 4.88789 3.65013 4.92911 3.63214L4.93491 3.62962C5.09455 3.55966 5.16644 3.37383 5.09648 3.21425C5.02646 3.05461 4.83958 2.9824 4.68011 3.0523L4.67502 3.0545C4.51529 3.12425 4.44316 3.30993 4.51292 3.4696C4.56469 3.58814 4.68085 3.65865 4.80257 3.65865Z" fill="white"/>
<path d="M10.7595 10.6742C10.6137 10.5789 10.4182 10.6199 10.3227 10.7658C10.0627 11.1637 9.7577 11.5448 9.41598 11.8984C9.13497 12.189 8.83046 12.46 8.51092 12.7036C8.37237 12.8092 8.34571 13.0072 8.45133 13.1458C8.51346 13.2272 8.60742 13.2701 8.70246 13.2701C8.7692 13.2701 8.83643 13.249 8.89356 13.2054C9.23824 12.9426 9.56666 12.6504 9.86964 12.337C10.2391 11.9548 10.5693 11.5423 10.8511 11.1109C10.9464 10.965 10.9054 10.7695 10.7595 10.6742Z" fill="white"/>
<path d="M7.77816 13.1985L7.76005 13.2092C7.60926 13.2965 7.55773 13.4896 7.64503 13.6403C7.70354 13.7414 7.80945 13.7978 7.9184 13.7978C7.97201 13.7978 8.02644 13.7842 8.07616 13.7553L8.09705 13.743C8.24743 13.655 8.29793 13.4617 8.20987 13.3113C8.12174 13.161 7.92845 13.1106 7.77816 13.1985Z" fill="white"/>
<path d="M4.84915 7.35605C4.65541 7.16228 4.39774 7.05564 4.1237 7.05564C3.84966 7.05564 3.59196 7.16231 3.39814 7.35605C2.99815 7.75613 2.99815 8.4071 3.39814 8.80715L5.2613 10.6703C5.45507 10.864 5.71273 10.9706 5.9868 10.9706C6.26088 10.9706 6.51854 10.864 6.71234 10.6702L10.6018 6.78069C11.0018 6.38052 11.0018 5.72964 10.6018 5.32971C10.408 5.13594 10.1503 5.0293 9.87622 5.0293C9.60215 5.0293 9.34448 5.13597 9.15068 5.32971L5.98677 8.49362L4.84915 7.35605ZM9.59693 5.77596C9.67149 5.7014 9.77072 5.66035 9.87625 5.66035C9.98184 5.66035 10.081 5.7014 10.1556 5.77596C10.3095 5.92991 10.3095 6.18052 10.1555 6.33453L6.26612 10.224C6.19156 10.2985 6.09233 10.3396 5.9868 10.3396C5.88128 10.3396 5.78205 10.2985 5.70746 10.224L3.84436 8.36093C3.69034 8.20692 3.69034 7.95631 3.8443 7.80236C3.91889 7.7278 4.01812 7.68669 4.12367 7.68669C4.22923 7.68669 4.3284 7.72774 4.40296 7.8023L5.76365 9.16302C5.82286 9.22217 5.90307 9.25542 5.98677 9.25542C6.07048 9.25542 6.15069 9.2222 6.20984 9.16302L9.59693 5.77596Z" fill="white"/>
</svg>
