<svg width="20" height="20" viewBox="0 0 20 20" fill="none" xmlns="http://www.w3.org/2000/svg">
<path d="M10.3334 3.66675C6.65341 3.66675 3.66675 6.65341 3.66675 10.3334C3.66675 14.0134 6.65341 17.0001 10.3334 17.0001C14.0134 17.0001 17.0001 14.0134 17.0001 10.3334C17.0001 6.65341 14.0134 3.66675 10.3334 3.66675ZM10.3334 15.6667C7.38675 15.6667 5.00008 13.2801 5.00008 10.3334C5.00008 7.38675 7.38675 5.00008 10.3334 5.00008C13.2801 5.00008 15.6667 7.38675 15.6667 10.3334C15.6667 13.2801 13.2801 15.6667 10.3334 15.6667Z" fill="#EA8917"/>
<path d="M10.3333 13.6667C12.1743 13.6667 13.6667 12.1743 13.6667 10.3333C13.6667 8.49238 12.1743 7 10.3333 7C8.49238 7 7 8.49238 7 10.3333C7 12.1743 8.49238 13.6667 10.3333 13.6667Z" fill="#EA8917"/>
</svg>
