<svg width="14" height="14" viewBox="0 0 14 14" fill="none" xmlns="http://www.w3.org/2000/svg">
<path d="M8.16687 0.699707H5.83354C5.70476 0.699707 5.60022 0.804242 5.60022 0.93303C5.60022 1.06182 5.70476 1.16635 5.83354 1.16635H8.16687C8.29566 1.16635 8.40019 1.06182 8.40019 0.93303C8.40019 0.804242 8.29566 0.699707 8.16687 0.699707Z" fill="#EA8917"/>
<path d="M9.80002 0.699707H9.5667C9.43791 0.699707 9.33337 0.804242 9.33337 0.93303C9.33337 1.06182 9.43791 1.16635 9.5667 1.16635H9.80002C9.92881 1.16635 10.0333 1.06182 10.0333 0.93303C10.0333 0.804242 9.92881 0.699707 9.80002 0.699707Z" fill="#EA8917"/>
<path d="M7.28964 11.8999H6.71028C6.35539 11.8999 6.06653 12.1888 6.06653 12.5437V12.6564C6.06653 13.0113 6.35539 13.2999 6.71006 13.2999H7.28942C7.64432 13.2999 7.93318 13.0113 7.93318 12.6564V12.5437C7.93318 12.1888 7.64432 11.8999 7.28964 11.8999ZM7.46653 12.6564C7.46653 12.7539 7.3872 12.8332 7.28967 12.8332H6.71028C6.61253 12.8332 6.53318 12.7539 6.53318 12.6564V12.5437C6.53318 12.4459 6.6125 12.3666 6.71028 12.3666H7.28942C7.3872 12.3666 7.46653 12.4459 7.46653 12.5437V12.6564Z" fill="#EA8917"/>
<path d="M10.1233 0H3.8767C3.41167 0 3.0332 0.378465 3.0332 0.8435V13.1565C3.0332 13.6215 3.41167 14 3.8767 14H10.123C10.5881 14 10.9665 13.6215 10.9665 13.1567V0.8435C10.9666 0.378465 10.5881 0 10.1233 0ZM10.4999 13.1565C10.4999 13.3642 10.3309 13.5333 10.1233 13.5333H3.8767C3.66881 13.5333 3.49988 13.3641 3.49988 13.1567V0.8435C3.49988 0.635824 3.66881 0.466676 3.8767 0.466676H10.123C10.3309 0.466676 10.4999 0.635852 10.4999 0.8435V13.1565H10.4999Z" fill="#EA8917"/>
<path d="M10.7333 1.3999H3.26665C3.13786 1.3999 3.03333 1.50444 3.03333 1.63323V11.4332C3.03333 11.562 3.13786 11.6665 3.26665 11.6665H10.7333C10.8621 11.6665 10.9666 11.562 10.9666 11.4332V1.63323C10.9666 1.50444 10.8621 1.3999 10.7333 1.3999ZM10.5 11.1999H3.49997V1.86658H10.5V11.1999Z" fill="#EA8917"/>
</svg>
