<svg width="14" height="14" viewBox="0 0 14 14" fill="none" xmlns="http://www.w3.org/2000/svg">
<path d="M2.91675 2.9165H10.5001C10.9642 2.9165 11.4093 3.10088 11.7375 3.42907C12.0657 3.75726 12.2501 4.20238 12.2501 4.6665V9.9165C12.2501 10.3806 12.0657 10.8258 11.7375 11.1539C11.4093 11.4821 10.9642 11.6665 10.5001 11.6665H2.91675C2.45262 11.6665 2.0075 11.4821 1.67931 11.1539C1.35112 10.8258 1.16675 10.3806 1.16675 9.9165V4.6665C1.16675 4.20238 1.35112 3.75726 1.67931 3.42907C2.0075 3.10088 2.45262 2.9165 2.91675 2.9165ZM2.91675 3.49984C2.63208 3.49984 2.37075 3.60192 2.16833 3.77167L6.70842 6.71984L11.2485 3.77167C11.0388 3.59575 10.7738 3.49948 10.5001 3.49984H2.91675ZM6.70842 7.41517L1.82825 4.2465C1.7765 4.38048 1.75 4.52288 1.75008 4.6665V9.9165C1.75008 10.2259 1.873 10.5227 2.09179 10.7415C2.31058 10.9603 2.60733 11.0832 2.91675 11.0832H10.5001C10.8095 11.0832 11.1062 10.9603 11.325 10.7415C11.5438 10.5227 11.6667 10.2259 11.6667 9.9165V4.6665C11.6667 4.51834 11.6393 4.37659 11.5886 4.2465L6.70842 7.41459V7.41517Z" fill="#333333"/>
</svg>
