<svg width="14" height="14" viewBox="0 0 14 14" fill="none" xmlns="http://www.w3.org/2000/svg">
<path d="M3.325 2.9165H10.15C10.5677 2.9165 10.9683 3.10088 11.2637 3.42907C11.5591 3.75726 11.725 4.20238 11.725 4.6665V9.9165C11.725 10.3806 11.5591 10.8258 11.2637 11.1539C10.9683 11.4821 10.5677 11.6665 10.15 11.6665H3.325C2.90728 11.6665 2.50668 11.4821 2.21131 11.1539C1.91594 10.8258 1.75 10.3806 1.75 9.9165V4.6665C1.75 4.20238 1.91594 3.75726 2.21131 3.42907C2.50668 3.10088 2.90728 2.9165 3.325 2.9165ZM3.325 3.49984C3.0688 3.49984 2.8336 3.60192 2.65142 3.77167L6.7375 6.71984L10.8236 3.77167C10.6349 3.59575 10.3963 3.49948 10.15 3.49984H3.325ZM6.7375 7.41517L2.34535 4.2465C2.29878 4.38048 2.27492 4.52288 2.275 4.6665V9.9165C2.275 10.2259 2.38562 10.5227 2.58254 10.7415C2.77945 10.9603 3.04652 11.0832 3.325 11.0832H10.15C10.4285 11.0832 10.6955 10.9603 10.8925 10.7415C11.0894 10.5227 11.2 10.2259 11.2 9.9165V4.6665C11.2 4.51834 11.1753 4.37659 11.1296 4.2465L6.7375 7.41459V7.41517Z" fill="#EA8917"/>
</svg>
