<svg width="14" height="14" viewBox="0 0 14 14" fill="none" xmlns="http://www.w3.org/2000/svg">
<path d="M8.16699 0.699707H5.83367C5.70488 0.699707 5.60034 0.804242 5.60034 0.93303C5.60034 1.06182 5.70488 1.16635 5.83367 1.16635H8.16699C8.29578 1.16635 8.40032 1.06182 8.40032 0.93303C8.40032 0.804242 8.29578 0.699707 8.16699 0.699707Z" fill="#333333"/>
<path d="M9.80014 0.699707H9.56682C9.43803 0.699707 9.3335 0.804242 9.3335 0.93303C9.3335 1.06182 9.43803 1.16635 9.56682 1.16635H9.80014C9.92893 1.16635 10.0335 1.06182 10.0335 0.93303C10.0335 0.804242 9.92893 0.699707 9.80014 0.699707Z" fill="#333333"/>
<path d="M7.28952 11.8999H6.71016C6.35527 11.8999 6.06641 12.1888 6.06641 12.5437V12.6564C6.06641 13.0113 6.35527 13.2999 6.70994 13.2999H7.2893C7.6442 13.2999 7.93305 13.0113 7.93305 12.6564V12.5437C7.93305 12.1888 7.64419 11.8999 7.28952 11.8999ZM7.46641 12.6564C7.46641 12.7539 7.38708 12.8332 7.28955 12.8332H6.71016C6.61241 12.8332 6.53305 12.7539 6.53305 12.6564V12.5437C6.53305 12.4459 6.61238 12.3666 6.71016 12.3666H7.2893C7.38708 12.3666 7.46641 12.4459 7.46641 12.5437V12.6564Z" fill="#333333"/>
<path d="M10.1233 0H3.8767C3.41167 0 3.0332 0.378465 3.0332 0.8435V13.1565C3.0332 13.6215 3.41167 14 3.8767 14H10.123C10.5881 14 10.9665 13.6215 10.9665 13.1567V0.8435C10.9666 0.378465 10.5881 0 10.1233 0ZM10.4999 13.1565C10.4999 13.3642 10.3309 13.5333 10.1233 13.5333H3.8767C3.66881 13.5333 3.49988 13.3641 3.49988 13.1567V0.8435C3.49988 0.635824 3.66881 0.466676 3.8767 0.466676H10.123C10.3309 0.466676 10.4999 0.635852 10.4999 0.8435V13.1565H10.4999Z" fill="#333333"/>
<path d="M10.7332 1.3999H3.26653C3.13774 1.3999 3.0332 1.50444 3.0332 1.63323V11.4332C3.0332 11.562 3.13774 11.6665 3.26653 11.6665H10.7332C10.862 11.6665 10.9665 11.562 10.9665 11.4332V1.63323C10.9665 1.50444 10.862 1.3999 10.7332 1.3999ZM10.4999 11.1999H3.49985V1.86658H10.4999V11.1999Z" fill="#333333"/>
</svg>
