<svg width="40" height="40" viewBox="0 0 40 40" fill="none" xmlns="http://www.w3.org/2000/svg">
<circle cx="20" cy="20" r="19.5" stroke="white"/>
<path d="M19.999 14.9917C18.6704 14.9917 17.3963 15.5195 16.4568 16.4589C15.5174 17.3983 14.9896 18.6725 14.9896 20.001C14.9896 21.3296 15.5174 22.6037 16.4568 23.5432C17.3963 24.4826 18.6704 25.0104 19.999 25.0104C21.3275 25.0104 22.6017 24.4826 23.5411 23.5432C24.4805 22.6037 25.0083 21.3296 25.0083 20.001C25.0083 18.6725 24.4805 17.3983 23.5411 16.4589C22.6017 15.5195 21.3275 14.9917 19.999 14.9917V14.9917ZM19.999 23.2543C19.1359 23.2543 18.3081 22.9114 17.6978 22.3011C17.0875 21.6908 16.7446 20.8631 16.7446 19.9999C16.7446 19.1368 17.0875 18.3091 17.6978 17.6988C18.3081 17.0885 19.1359 16.7456 19.999 16.7456C20.8621 16.7456 21.6898 17.0885 22.3001 17.6988C22.9104 18.3091 23.2533 19.1368 23.2533 19.9999C23.2533 20.8631 22.9104 21.6908 22.3001 22.3011C21.6898 22.9114 20.8621 23.2543 19.999 23.2543V23.2543Z" fill="white"/>
<path d="M25.2065 15.9753C25.8515 15.9753 26.3744 15.4525 26.3744 14.8075C26.3744 14.1625 25.8515 13.6396 25.2065 13.6396C24.5616 13.6396 24.0387 14.1625 24.0387 14.8075C24.0387 15.4525 24.5616 15.9753 25.2065 15.9753Z" fill="white"/>
<path d="M29.2441 13.6202C28.9933 12.9726 28.6101 12.3844 28.1189 11.8934C27.6277 11.4024 27.0394 11.0194 26.3917 10.7689C25.6337 10.4843 24.833 10.3305 24.0235 10.3139C22.9803 10.2684 22.6499 10.2554 20.0044 10.2554C17.3589 10.2554 17.0198 10.2554 15.9852 10.3139C15.1764 10.3296 14.3762 10.4835 13.6192 10.7689C12.9713 11.0191 12.3829 11.402 11.8916 11.8931C11.4004 12.3841 11.0173 12.9724 10.7668 13.6202C10.4822 14.3781 10.3287 15.1789 10.3129 15.9884C10.2663 17.0305 10.2522 17.361 10.2522 20.0075C10.2522 22.653 10.2522 22.99 10.3129 24.0267C10.3291 24.837 10.4819 25.6365 10.7668 26.396C11.018 27.0435 11.4015 27.6316 11.8928 28.1225C12.3842 28.6135 12.9725 28.9966 13.6203 29.2473C14.3758 29.5432 15.1763 29.7081 15.9874 29.7348C17.0306 29.7803 17.361 29.7944 20.0065 29.7944C22.652 29.7944 22.9911 29.7944 24.0257 29.7348C24.8351 29.7183 25.6358 29.5649 26.3939 29.2809C27.0414 29.0297 27.6295 28.6464 28.1207 28.1553C28.6118 27.6641 28.9952 27.076 29.2463 26.4285C29.5312 25.6701 29.6839 24.8706 29.7002 24.0603C29.7468 23.0181 29.7609 22.6877 29.7609 20.0411C29.7609 17.3945 29.7609 17.0587 29.7002 16.022C29.6876 15.2011 29.5333 14.3886 29.2441 13.6202V13.6202ZM27.9246 23.9465C27.9176 24.5709 27.8037 25.1894 27.5877 25.7752C27.425 26.1965 27.1759 26.579 26.8565 26.8983C26.5371 27.2175 26.1544 27.4663 25.733 27.6288C25.1537 27.8438 24.5418 27.9577 23.9239 27.9657C22.8947 28.0134 22.6044 28.0253 19.9654 28.0253C17.3242 28.0253 17.0544 28.0253 16.0058 27.9657C15.3882 27.9581 14.7765 27.8442 14.1977 27.6288C13.7749 27.4674 13.3906 27.219 13.0698 26.8997C12.749 26.5804 12.4989 26.1973 12.3354 25.7752C12.1225 25.1957 12.0086 24.5844 11.9985 23.9671C11.9519 22.938 11.9411 22.6476 11.9411 20.0086C11.9411 17.3685 11.9411 17.0988 11.9985 16.049C12.0055 15.4251 12.1195 14.8069 12.3354 14.2215C12.6659 13.3667 13.3429 12.694 14.1977 12.3668C14.7768 12.1524 15.3883 12.0385 16.0058 12.0299C17.036 11.9833 17.3253 11.9703 19.9654 11.9703C22.6054 11.9703 22.8763 11.9703 23.9239 12.0299C24.5418 12.0373 25.1538 12.1513 25.733 12.3668C26.1544 12.5296 26.537 12.7787 26.8564 13.0981C27.1758 13.4175 27.4249 13.8001 27.5877 14.2215C27.8006 14.801 27.9145 15.4122 27.9246 16.0295C27.9712 17.0598 27.9831 17.349 27.9831 19.9891C27.9831 22.6281 27.9831 22.912 27.9365 23.9476H27.9246V23.9465Z" fill="white"/>
</svg>
