<svg width="40" height="40" viewBox="0 0 40 40" fill="none" xmlns="http://www.w3.org/2000/svg">
<path fill-rule="evenodd" clip-rule="evenodd" d="M20.052 25.6681H21.092C21.092 25.6681 21.404 25.6161 21.56 25.4601C21.716 25.3041 21.716 24.9921 21.716 24.9921C21.716 24.9921 21.716 23.6401 22.34 23.4321C22.964 23.2241 23.796 24.7841 24.628 25.3561C25.252 25.8241 25.72 25.7201 25.72 25.7201L28.008 25.6681C28.008 25.6681 29.204 25.6161 28.632 24.6281C28.58 24.5761 28.32 23.9521 26.916 22.6521C25.46 21.3001 25.668 21.5601 27.384 19.2201C28.424 17.8161 28.84 16.9841 28.736 16.5681C28.632 16.2041 27.852 16.3081 27.852 16.3081H25.252C25.252 16.3081 25.044 16.2561 24.94 16.3601C24.784 16.4641 24.732 16.6201 24.732 16.6201C24.732 16.6201 24.316 17.7121 23.796 18.6481C22.652 20.5721 22.184 20.6761 22.028 20.5721C21.612 20.3121 21.716 19.4281 21.716 18.8561C21.716 16.9841 22.028 16.2041 21.144 15.9961C20.884 15.9441 20.676 15.8921 19.948 15.8921C19.012 15.8921 18.232 15.8921 17.816 16.1001C17.504 16.2561 17.296 16.5681 17.452 16.5681C17.608 16.5681 18.024 16.6721 18.232 16.9321C18.44 17.4001 18.44 18.1801 18.44 18.1801C18.44 18.1801 18.596 20.4161 18.076 20.6761C17.712 20.8841 17.244 20.4681 16.204 18.7001C15.684 17.8161 15.268 16.7761 15.268 16.7761C15.268 16.7761 15.216 16.5681 15.06 16.4641C14.904 16.3601 14.644 16.3081 14.644 16.3081H12.2C12.2 16.3081 11.836 16.3081 11.68 16.4641C11.576 16.6201 11.68 16.8801 11.68 16.8801C11.68 16.8801 13.604 21.3521 15.788 23.6401C17.816 25.8241 20.052 25.6681 20.052 25.6681Z" fill="#0225C1"/>
<circle cx="20" cy="20" r="19.5" stroke="#0225C1"/>
</svg>
