<svg width="108" height="110" viewBox="0 0 108 110" fill="none" xmlns="http://www.w3.org/2000/svg">
<path d="M90.4733 58.7387L89.9907 58.6077L90.4733 58.7387ZM29.1075 84.7564C28.8847 84.9195 28.8362 85.2324 28.9993 85.4552L31.6569 89.0866C31.82 89.3095 32.1328 89.3579 32.3557 89.1949C32.5785 89.0318 32.627 88.7189 32.4639 88.4961L30.1016 85.2681L33.3295 82.9058C33.5524 82.7428 33.6008 82.4299 33.4377 82.2071C33.2747 81.9842 32.9618 81.9358 32.739 82.0989L29.1075 84.7564ZM52.2391 4.83624C52.0497 5.29899 52.0497 5.29899 52.0497 5.29898L52.0497 5.29897C52.0497 5.29897 52.0497 5.29899 52.0497 5.299C52.0498 5.29902 52.0499 5.29907 52.0501 5.29915C52.0505 5.2993 52.0511 5.29956 52.052 5.29991C52.0537 5.30062 52.0564 5.30173 52.0601 5.30324C52.0674 5.30628 52.0786 5.31093 52.0936 5.31718C52.1237 5.32969 52.1688 5.34864 52.2286 5.374C52.3481 5.42472 52.5257 5.50108 52.7564 5.60286C53.2179 5.80642 53.8917 6.11164 54.7373 6.51673L55.1694 5.61488C54.3137 5.20494 53.6303 4.89537 53.16 4.68792C52.9249 4.58419 52.743 4.50597 52.6193 4.4535C52.5575 4.42726 52.5103 4.40746 52.4783 4.39412C52.4623 4.38744 52.4501 4.38239 52.4417 4.37895C52.4376 4.37723 52.4344 4.37591 52.4322 4.375C52.4311 4.37455 52.4302 4.3742 52.4296 4.37395C52.4293 4.37382 52.429 4.37372 52.4288 4.37364C52.4288 4.37361 52.4287 4.37357 52.4286 4.37355C52.4286 4.37354 52.4285 4.37352 52.4285 4.37351C52.4285 4.3735 52.4285 4.37349 52.2391 4.83624ZM60.0454 9.27461C61.6247 10.1575 63.3606 11.184 65.1799 12.3508L65.7198 11.5091C63.8816 10.3302 62.1282 9.29338 60.5334 8.40175L60.0454 9.27461ZM70.1071 15.7402C71.6651 16.8909 73.2354 18.1327 74.7785 19.4637L75.4317 18.7065C73.8676 17.3573 72.2773 16.0999 70.7012 14.9358L70.1071 15.7402ZM79.1202 23.5503C80.4947 24.9691 81.8101 26.4654 83.0335 28.0375L83.8227 27.4234C82.5749 25.8199 81.2354 24.2965 79.8384 22.8545L79.1202 23.5503ZM86.3759 32.9481C87.3736 34.6522 88.2485 36.4285 88.9691 38.2755L89.9007 37.912C89.1594 36.0119 88.2609 34.1884 87.2389 32.4429L86.3759 32.9481ZM90.6216 43.9515C90.9889 45.8458 91.1877 47.8046 91.19 49.8269L92.19 49.8257C92.1877 47.7382 91.9824 45.7161 91.6033 43.7612L90.6216 43.9515ZM90.6495 55.7134C90.4749 56.6654 90.2561 57.6301 89.9907 58.6077L90.9558 58.8697C91.2284 57.8657 91.4534 56.8737 91.6331 55.8938L90.6495 55.7134ZM89.9907 58.6077C89.7231 59.5933 89.4205 60.5431 89.0851 61.4584L90.0241 61.8024C90.3695 60.8597 90.6808 59.8826 90.9558 58.8697L89.9907 58.6077ZM86.5271 66.8373C85.4806 68.585 84.2915 70.1733 82.9855 71.6162L83.7269 72.2872C85.0755 70.7972 86.3039 69.1565 87.3851 67.3511L86.5271 66.8373ZM78.5897 75.6401C77.0023 76.8488 75.3153 77.9158 73.5574 78.8565L74.0292 79.7382C75.8297 78.7747 77.5621 77.6794 79.1955 76.4357L78.5897 75.6401ZM68.0969 81.3162C66.2188 82.0222 64.2996 82.6159 62.3691 83.1131L62.6185 84.0815C64.58 83.5763 66.5337 82.9722 68.4488 82.2522L68.0969 81.3162ZM56.4856 84.3454C54.4585 84.68 52.4539 84.925 50.5072 85.099L50.5962 86.095C52.565 85.919 54.5944 85.6711 56.6485 85.332L56.4856 84.3454ZM44.4893 85.4375C42.3107 85.4909 40.277 85.4684 38.4532 85.4049L38.4184 86.4043C40.2597 86.4684 42.3133 86.4911 44.5137 86.4372L44.4893 85.4375ZM32.4333 85.0143C31.4926 84.9232 30.7522 84.8358 30.2478 84.7713C29.9956 84.739 29.8025 84.7125 29.6729 84.6941C29.6081 84.6849 29.5592 84.6778 29.5268 84.673C29.5105 84.6705 29.4984 84.6687 29.4905 84.6675C29.4865 84.6669 29.4836 84.6665 29.4818 84.6662C29.4808 84.666 29.4802 84.6659 29.4797 84.6659C29.4795 84.6659 29.4794 84.6658 29.4793 84.6658C29.4793 84.6658 29.4793 84.6658 29.4793 84.6658C29.4793 84.6658 29.4793 84.6658 29.4793 84.6658C29.4793 84.6658 29.4793 84.6658 29.4028 85.1599C29.3263 85.654 29.3263 85.654 29.3264 85.654C29.3264 85.654 29.3264 85.6541 29.3264 85.6541C29.3265 85.6541 29.3266 85.6541 29.3267 85.6541C29.3269 85.6541 29.3272 85.6542 29.3275 85.6542C29.3281 85.6543 29.3291 85.6545 29.3303 85.6546C29.3326 85.655 29.3361 85.6555 29.3405 85.6562C29.3495 85.6576 29.3627 85.6596 29.3799 85.6621C29.4145 85.6672 29.4655 85.6747 29.5325 85.6842C29.6664 85.7032 29.8641 85.7303 30.1209 85.7632C30.6346 85.8289 31.3853 85.9175 32.3369 86.0096L32.4333 85.0143ZM90.4733 58.7387L89.5082 58.4767L90.4733 58.7387ZM28.8122 84.3529C28.3666 84.6791 28.2697 85.3048 28.5958 85.7505L33.911 93.0134C34.2371 93.459 34.8629 93.5559 35.3085 93.2298C35.7542 92.9036 35.8511 92.2779 35.525 91.8322L30.8004 85.3763L37.2563 80.6518C37.7019 80.3256 37.7988 79.6999 37.4727 79.2542C37.1465 78.8085 36.5208 78.7116 36.0751 79.0378L28.8122 84.3529ZM52.2391 4.83624C51.8604 5.76175 51.8603 5.76173 51.8603 5.76171C51.8603 5.76171 51.8602 5.76169 51.8602 5.76169C51.8602 5.76168 51.8602 5.76167 51.8602 5.76167C51.8602 5.76167 51.8603 5.7617 51.8604 5.76175C51.8606 5.76185 51.8611 5.76206 51.8619 5.76236C51.8633 5.76297 51.8658 5.76398 51.8692 5.7654C51.8761 5.76822 51.8868 5.77266 51.9013 5.77871C51.9303 5.7908 51.9745 5.80933 52.0332 5.83425C52.1506 5.88409 52.3261 5.95952 52.5547 6.06033C53.0117 6.26195 53.6808 6.56499 54.5213 6.96766L55.3854 5.16396C54.5246 4.75159 53.8365 4.43984 53.3618 4.23045C53.1245 4.12574 52.9404 4.0466 52.8147 3.99325C52.7519 3.96658 52.7036 3.94635 52.6706 3.93259C52.6541 3.9257 52.6414 3.92044 52.6326 3.9168C52.6282 3.91498 52.6247 3.91356 52.6223 3.91255C52.621 3.91205 52.6201 3.91165 52.6193 3.91134C52.619 3.91119 52.6186 3.91106 52.6184 3.91096C52.6183 3.91092 52.6182 3.91087 52.6181 3.91083C52.618 3.91082 52.618 3.91079 52.618 3.91078C52.6179 3.91076 52.6178 3.91074 52.2391 4.83624ZM59.8014 9.71104C61.3729 10.5896 63.1001 11.6109 64.91 12.7717L65.9897 11.0882C64.1421 9.90328 62.38 8.86131 60.7773 7.96532L59.8014 9.71104ZM69.8101 16.1424C71.359 17.2864 72.9194 18.5203 74.452 19.8423L75.7583 18.3279C74.1837 16.9696 72.5834 15.7044 70.9983 14.5336L69.8101 16.1424ZM78.7611 23.8982C80.1243 25.3054 81.4277 26.7881 82.6389 28.3446L84.2173 27.1163C82.9573 25.4972 81.6057 23.9602 80.1976 22.5066L78.7611 23.8982ZM85.9445 33.2007C86.93 34.8841 87.7931 36.6367 88.5033 38.4572L90.3665 37.7303C89.6149 35.8037 88.7045 33.9565 87.6704 32.1903L85.9445 33.2007ZM90.1307 44.0467C90.4922 45.9107 90.6878 47.8377 90.69 49.8274L92.69 49.8252C92.6876 47.705 92.4791 45.6513 92.0941 43.666L90.1307 44.0467ZM90.1577 55.6232C89.9857 56.5612 89.77 57.5124 89.5082 58.4767L91.4383 59.0007C91.7145 57.9834 91.9426 56.9778 92.1249 55.9841L90.1577 55.6232ZM89.5082 58.4767C89.2443 59.4487 88.946 60.3848 88.6157 61.2864L90.4936 61.9744C90.844 61.0181 91.1596 60.0272 91.4383 59.0007L89.5082 58.4767ZM86.0982 66.5804C85.0689 68.2993 83.8995 69.8613 82.6148 71.2806L84.0976 72.6228C85.4675 71.1092 86.7156 69.4423 87.8141 67.6079L86.0982 66.5804ZM78.2868 75.2423C76.7224 76.4335 75.058 77.4864 73.3215 78.4157L74.2652 80.179C76.0869 79.2042 77.842 78.0947 79.4984 76.8335L78.2868 75.2423ZM67.921 80.8482C66.0613 81.5472 64.1594 82.1357 62.2444 82.6289L62.7432 84.5657C64.7201 84.0566 66.6911 83.4471 68.6247 82.7202L67.921 80.8482ZM56.4042 83.852C54.3905 84.1845 52.3983 84.428 50.4626 84.601L50.6407 86.5931C52.6205 86.4161 54.6623 86.1667 56.73 85.8253L56.4042 83.852ZM44.477 84.9377C42.3094 84.9908 40.2857 84.9684 38.4706 84.9052L38.401 86.904C40.251 86.9684 42.3146 86.9912 44.526 86.937L44.477 84.9377ZM32.4815 84.5166C31.5463 84.4261 30.8109 84.3392 30.3112 84.2753C30.0614 84.2434 29.8705 84.2171 29.7431 84.1991C29.6794 84.19 29.6316 84.183 29.6002 84.1784C29.5845 84.176 29.5729 84.1743 29.5655 84.1732C29.5618 84.1726 29.5591 84.1722 29.5575 84.172C29.5567 84.1718 29.5562 84.1718 29.5559 84.1717C29.5557 84.1717 29.5557 84.1717 29.5557 84.1717C29.5557 84.1717 29.5557 84.1717 29.5557 84.1717C29.5557 84.1717 29.5558 84.1717 29.5558 84.1717C29.5558 84.1717 29.5558 84.1717 29.4028 85.1599C29.2498 86.1481 29.2498 86.1482 29.2499 86.1482C29.2499 86.1482 29.25 86.1482 29.25 86.1482C29.2501 86.1482 29.2502 86.1482 29.2504 86.1482C29.2506 86.1483 29.251 86.1483 29.2514 86.1484C29.2521 86.1485 29.2532 86.1487 29.2545 86.1489C29.2571 86.1493 29.2608 86.1498 29.2656 86.1506C29.275 86.152 29.2887 86.1541 29.3065 86.1567C29.3421 86.162 29.3942 86.1696 29.4623 86.1793C29.5984 86.1986 29.7983 86.226 30.0575 86.2591C30.5759 86.3254 31.3316 86.4146 32.2887 86.5073L32.4815 84.5166Z" fill="#888888"/>
</svg>
