<svg width="30" height="30" viewBox="0 0 30 30" fill="none" xmlns="http://www.w3.org/2000/svg">
<path d="M15.5 5.5C9.98 5.5 5.5 9.98 5.5 15.5C5.5 21.02 9.98 25.5 15.5 25.5C21.02 25.5 25.5 21.02 25.5 15.5C25.5 9.98 21.02 5.5 15.5 5.5ZM15.5 23.5C11.08 23.5 7.5 19.92 7.5 15.5C7.5 11.08 11.08 7.5 15.5 7.5C19.92 7.5 23.5 11.08 23.5 15.5C23.5 19.92 19.92 23.5 15.5 23.5Z" fill="#0225C1"/>
<path d="M15.5 20.5C18.2614 20.5 20.5 18.2614 20.5 15.5C20.5 12.7386 18.2614 10.5 15.5 10.5C12.7386 10.5 10.5 12.7386 10.5 15.5C10.5 18.2614 12.7386 20.5 15.5 20.5Z" fill="#0225C1"/>
</svg>
