<svg width="16" height="16" viewBox="0 0 16 16" fill="none" xmlns="http://www.w3.org/2000/svg">
<path d="M8.26644 2.93335C5.32244 2.93335 2.93311 5.32268 2.93311 8.26668C2.93311 11.2107 5.32244 13.6 8.26644 13.6C11.2104 13.6 13.5998 11.2107 13.5998 8.26668C13.5998 5.32268 11.2104 2.93335 8.26644 2.93335ZM8.26644 12.5333C5.90911 12.5333 3.99977 10.624 3.99977 8.26668C3.99977 5.90935 5.90911 4.00002 8.26644 4.00002C10.6238 4.00002 12.5331 5.90935 12.5331 8.26668C12.5331 10.624 10.6238 12.5333 8.26644 12.5333Z" fill="#0225C1"/>
<path d="M8.26676 10.9334C9.73952 10.9334 10.9334 9.73952 10.9334 8.26676C10.9334 6.794 9.73952 5.6001 8.26676 5.6001C6.794 5.6001 5.6001 6.794 5.6001 8.26676C5.6001 9.73952 6.794 10.9334 8.26676 10.9334Z" fill="#0225C1"/>
</svg>
