<svg width="11" height="20" viewBox="0 0 11 20" fill="none" xmlns="http://www.w3.org/2000/svg">
<path d="M10.2821 16.836C10.5398 17.0963 10.6844 17.4477 10.6844 17.814C10.6844 18.1803 10.5398 18.5317 10.2821 18.792C10.1556 18.9205 10.0047 19.0225 9.83836 19.0922C9.672 19.1618 9.49345 19.1977 9.3131 19.1977C9.13275 19.1977 8.9542 19.1618 8.78785 19.0922C8.62149 19.0225 8.47065 18.9205 8.3441 18.792L0.684102 10.976C0.426755 10.7151 0.282471 10.3634 0.282471 9.99699C0.282471 9.63056 0.426755 9.27885 0.684102 9.01799L8.3441 1.20199C8.47065 1.07349 8.62149 0.971444 8.78785 0.90179C8.9542 0.832135 9.13275 0.796265 9.3131 0.796265C9.49345 0.796265 9.672 0.832135 9.83836 0.90179C10.0047 0.971444 10.1556 1.07349 10.2821 1.20199C10.5398 1.46226 10.6844 1.81372 10.6844 2.17999C10.6844 2.54626 10.5398 2.89772 10.2821 3.15799L4.0001 9.99999L10.2821 16.836Z" fill="white"/>
</svg>
