<svg width="20" height="20" viewBox="0 0 20 20" fill="none" xmlns="http://www.w3.org/2000/svg">
<path d="M12.1409 13.418C12.2698 13.5481 12.3421 13.7239 12.3421 13.907C12.3421 14.0901 12.2698 14.2659 12.1409 14.396C12.0777 14.4603 12.0022 14.5113 11.9191 14.5461C11.8359 14.5809 11.7466 14.5989 11.6564 14.5989C11.5663 14.5989 11.477 14.5809 11.3938 14.5461C11.3106 14.5113 11.2352 14.4603 11.1719 14.396L7.34193 10.488C7.21326 10.3576 7.14111 10.1817 7.14111 9.99851C7.14111 9.81529 7.21326 9.63944 7.34193 9.50901L11.1719 5.60101C11.2352 5.53676 11.3106 5.48574 11.3938 5.45091C11.477 5.41608 11.5663 5.39815 11.6564 5.39815C11.7466 5.39815 11.8359 5.41608 11.9191 5.45091C12.0022 5.48574 12.0777 5.53676 12.1409 5.60101C12.2698 5.73114 12.3421 5.90688 12.3421 6.09001C12.3421 6.27314 12.2698 6.44888 12.1409 6.57901L8.99993 10L12.1409 13.418Z" fill="white"/>
</svg>
