<svg width="11" height="20" viewBox="0 0 11 20" fill="none" xmlns="http://www.w3.org/2000/svg">
<path d="M0.71802 16.836C0.460317 17.0963 0.315753 17.4477 0.315753 17.814C0.315753 18.1803 0.460317 18.5317 0.71802 18.792C0.844567 18.9205 0.995409 19.0225 1.16177 19.0922C1.32812 19.1618 1.50667 19.1977 1.68702 19.1977C1.86737 19.1977 2.04592 19.1618 2.21228 19.0922C2.37863 19.0225 2.52947 18.9205 2.65602 18.792L10.316 10.976C10.5734 10.7151 10.7177 10.3634 10.7177 9.99699C10.7177 9.63056 10.5734 9.27885 10.316 9.01799L2.65602 1.20199C2.52947 1.07349 2.37863 0.971444 2.21228 0.90179C2.04592 0.832135 1.86737 0.796265 1.68702 0.796265C1.50667 0.796265 1.32812 0.832135 1.16177 0.90179C0.995409 0.971444 0.844567 1.07349 0.71802 1.20199C0.460317 1.46226 0.315753 1.81372 0.315753 2.17999C0.315753 2.54626 0.460317 2.89772 0.71802 3.15799L7.00002 9.99999L0.71802 16.836Z" fill="white"/>
</svg>
