<svg width="20" height="20" viewBox="0 0 20 20" fill="none" xmlns="http://www.w3.org/2000/svg">
<path d="M7.85883 13.418C7.72997 13.5481 7.65769 13.7239 7.65769 13.907C7.65769 14.0901 7.72997 14.2659 7.85883 14.396C7.9221 14.4603 7.99752 14.5113 8.0807 14.5461C8.16388 14.5809 8.25315 14.5989 8.34333 14.5989C8.4335 14.5989 8.52278 14.5809 8.60595 14.5461C8.68913 14.5113 8.76455 14.4603 8.82783 14.396L12.6578 10.488C12.7865 10.3576 12.8586 10.1817 12.8586 9.99851C12.8586 9.81529 12.7865 9.63944 12.6578 9.50901L8.82783 5.60101C8.76455 5.53676 8.68913 5.48574 8.60595 5.45091C8.52278 5.41608 8.4335 5.39815 8.34333 5.39815C8.25315 5.39815 8.16388 5.41608 8.0807 5.45091C7.99752 5.48574 7.9221 5.53676 7.85883 5.60101C7.72997 5.73114 7.65769 5.90688 7.65769 6.09001C7.65769 6.27314 7.72997 6.44888 7.85883 6.57901L10.9998 10L7.85883 13.418Z" fill="white"/>
</svg>
